<svg xmlns="http://www.w3.org/2000/svg" xmlns:xlink="http://www.w3.org/1999/xlink" width="1920" zoomAndPan="magnify" viewBox="0 0 1440 809.999993" height="1080" preserveAspectRatio="xMidYMid meet" version="1.0"><defs><clipPath id="c71dd1dedf"><path d="M 155.414062 302.347656 L 1284.914062 302.347656 L 1284.914062 416 L 155.414062 416 Z M 155.414062 302.347656 " clip-rule="nonzero"/></clipPath><clipPath id="1610877d5a"><path d="M 186 316 L 1255 316 L 1255 507.847656 L 186 507.847656 Z M 186 316 " clip-rule="nonzero"/></clipPath></defs><g clip-path="url(#c71dd1dedf)"><path fill="#008459" d="M 600.484375 321.945312 C 600.257812 322.394531 600.257812 322.621094 600.035156 323.074219 C 600.257812 322.621094 600.257812 322.394531 600.484375 321.945312 Z M 701.195312 365.78125 C 697.132812 366.007812 693.292969 366.007812 689.230469 366.234375 C 689.003906 365.101562 689.003906 363.972656 688.777344 363.070312 C 674.550781 359.226562 657.390625 338.441406 652.648438 328.949219 C 640.90625 328.949219 626.226562 319.910156 624.195312 317.199219 C 624.421875 321.265625 631.195312 331.433594 626.453125 336.179688 C 618.777344 343.863281 605 336.632812 609.742188 329.851562 C 605.679688 333.46875 598.453125 328.046875 599.582031 323.300781 C 597.777344 328.046875 593.710938 332.339844 588.742188 332.789062 C 583.324219 333.242188 577.90625 327.367188 580.164062 322.394531 C 574.292969 325.558594 566.386719 324.65625 561.421875 320.363281 C 559.386719 318.554688 557.808594 316.296875 556.902344 313.808594 C 557.128906 318.328125 557.128906 323.074219 557.355469 327.59375 C 557.355469 330.53125 557.582031 333.695312 555.773438 336.179688 C 553.066406 340.246094 546.515625 340.019531 542.679688 337.082031 C 538.839844 334.144531 536.582031 329.402344 534.773438 324.882812 C 528 326.238281 522.808594 326.464844 516.710938 323.300781 C 511.96875 321.039062 507.453125 314.261719 507.226562 313.808594 C 502.484375 318.78125 493.675781 326.691406 487.128906 324.429688 C 492.773438 327.59375 498.644531 334.824219 496.613281 340.925781 C 494.355469 347.929688 480.355469 349.738281 472.902344 343.183594 C 473.804688 348.15625 465 350.867188 460.03125 351.769531 C 455.0625 352.675781 449.871094 349.285156 448.742188 344.539062 C 444.226562 343.863281 438.578125 343.863281 434.96875 340.925781 C 431.355469 337.761719 430.902344 330.757812 434.515625 327.820312 C 427.96875 331.433594 415.546875 328.269531 411.257812 321.945312 C 408.097656 335.277344 391.386719 332.339844 387.546875 326.691406 C 382.804688 334.824219 367.902344 341.828125 362.480469 334.371094 C 365.417969 340.699219 360 349.738281 353.222656 348.832031 C 346.222656 347.929688 340.578125 335.050781 347.578125 333.695312 C 333.804688 330.757812 336.515625 328.269531 333.351562 321.945312 C 324.09375 329.851562 315.289062 319.910156 314.382812 314.941406 C 309.417969 319.457031 291.125 314.488281 295.867188 302.738281 C 288.867188 304.996094 286.382812 308.839844 286.382812 314.488281 C 288.640625 316.746094 290.449219 321.492188 286.160156 325.109375 C 282.09375 328.949219 273.0625 326.011719 274.417969 320.589844 C 265.609375 326.011719 252.285156 322.394531 247.546875 313.132812 C 243.027344 320.136719 233.996094 323.976562 225.867188 321.945312 C 235.578125 323.527344 242.804688 334.371094 240.09375 343.863281 C 226.996094 349.964844 217.511719 347.476562 205.769531 340.472656 C 202.15625 349.285156 194.027344 354.707031 178.449219 349.511719 C 187.480469 352.449219 168.511719 365.554688 163.996094 365.328125 C 163.996094 373.691406 160.835938 380.015625 155.414062 386.117188 C 158.574219 385.890625 161.964844 384.988281 165.351562 384.082031 C 156.09375 394.703125 165.574219 396.964844 158.574219 408.9375 C 160.835938 408.9375 169.867188 399.902344 172.578125 399.449219 C 178.898438 398.546875 185.449219 402.613281 186.800781 408.714844 C 195.382812 398.09375 210.511719 393.347656 223.15625 399.222656 C 223.609375 394.476562 224.511719 389.507812 227.898438 386.34375 C 231.285156 383.179688 238.0625 383.179688 239.867188 387.699219 C 240.546875 389.28125 240.320312 390.863281 240.09375 392.671875 C 239.191406 399.675781 235.578125 406.453125 230.382812 411.425781 C 234.449219 408.488281 238.511719 405.777344 243.480469 405.097656 C 248.222656 404.421875 253.867188 406.453125 255.675781 410.972656 C 257.480469 403.0625 271.480469 402.839844 273.511719 410.746094 C 273.289062 403.515625 281.191406 397.191406 288.191406 399.222656 C 284.578125 396.058594 286.835938 389.054688 291.351562 387.699219 C 296.09375 386.34375 301.0625 390.410156 301.738281 395.382812 C 301.964844 398.09375 301.0625 400.578125 299.480469 402.613281 C 301.738281 401.707031 304.449219 401.707031 306.707031 402.386719 C 310.996094 403.96875 313.933594 408.941406 313.480469 413.457031 C 315.0625 408.941406 318.222656 404.421875 322.964844 403.742188 C 326.804688 403.289062 330.644531 406.453125 331.09375 409.84375 C 333.351562 403.066406 341.03125 398.320312 348.03125 400.128906 C 346.675781 390.636719 356.609375 381.597656 365.871094 383.632812 C 367 383.859375 368.128906 384.308594 368.804688 385.441406 C 369.707031 386.796875 369.03125 388.828125 368.351562 390.410156 C 365.644531 396.058594 361.578125 401.03125 356.609375 405.097656 C 360.449219 403.066406 365.191406 401.484375 369.257812 403.289062 C 372.191406 404.644531 374 408.488281 373.09375 411.425781 C 376.03125 407.808594 379.644531 404.871094 384.160156 404.871094 C 388.902344 404.871094 392.742188 410.519531 391.386719 414.363281 C 396.355469 408.035156 404.933594 404.644531 412.835938 406.226562 C 413.515625 401.257812 414.871094 396.285156 418.03125 392.671875 C 421.417969 389.054688 427.0625 387.019531 431.355469 389.507812 C 434.515625 391.089844 435.871094 395.382812 434.96875 398.546875 C 437.902344 395.832031 442.191406 394.476562 446.03125 395.609375 C 451.226562 397.191406 454.613281 402.839844 453.710938 408.035156 C 457.546875 397.191406 472.453125 391.992188 482.160156 397.867188 C 482.839844 389.734375 489.613281 382.503906 497.515625 381.144531 C 500.453125 380.695312 504.289062 381.597656 504.742188 384.535156 C 504.96875 385.890625 504.515625 387.019531 503.839844 388.152344 C 500.226562 396.058594 495.257812 403.289062 489.386719 409.84375 C 493.453125 407.132812 497.742188 404.195312 502.710938 404.195312 C 507.679688 404.195312 512.644531 408.488281 511.515625 413.234375 C 513.550781 409.390625 516.257812 405.097656 520.550781 404.195312 C 524.839844 403.289062 529.808594 408.488281 527.097656 411.875 C 530.03125 407.359375 536.808594 406.003906 541.550781 408.714844 C 541.097656 399.449219 541.550781 388.378906 549.453125 383.632812 C 555.550781 380.015625 564.582031 382.726562 567.515625 389.054688 C 569.777344 393.574219 568.421875 399.449219 565.257812 403.289062 C 572.257812 400.804688 581.96875 404.644531 583.550781 412.328125 C 583.550781 404.195312 595.96875 399.449219 601.390625 405.777344 C 600.484375 398.320312 598.226562 395.609375 603.195312 389.957031 C 607.9375 384.308594 613.808594 383.179688 619.679688 387.699219 C 627.355469 393.347656 622.613281 403.066406 617.421875 406.679688 C 626.90625 406.679688 637.066406 409.390625 642.261719 415.945312 C 647.90625 410.746094 665.96875 404.644531 672.96875 407.808594 C 676.359375 375.269531 689.453125 374.59375 705.488281 374.59375 C 706.617188 373.914062 707.519531 372.785156 707.746094 371.429688 C 708.421875 368.265625 704.582031 365.554688 701.195312 365.78125 Z M 839.84375 321.945312 C 840.070312 322.394531 840.070312 322.621094 840.296875 323.074219 C 840.070312 322.621094 840.070312 322.394531 839.84375 321.945312 Z M 732.585938 371.429688 C 732.808594 372.785156 733.714844 374.140625 734.84375 374.59375 C 750.875 374.820312 764.199219 375.269531 767.359375 407.808594 C 774.359375 404.871094 792.421875 410.746094 798.070312 415.945312 C 803.035156 409.390625 813.425781 406.679688 822.90625 406.679688 C 817.488281 403.289062 812.746094 393.347656 820.648438 387.699219 C 826.746094 383.40625 832.390625 384.308594 837.132812 389.957031 C 841.875 395.609375 839.617188 398.320312 838.941406 405.777344 C 844.132812 399.449219 856.78125 404.195312 856.78125 412.328125 C 858.359375 404.644531 868.070312 400.804688 875.070312 403.289062 C 871.683594 399.449219 870.554688 393.800781 872.8125 389.054688 C 875.972656 382.726562 884.78125 380.015625 890.875 383.632812 C 898.78125 388.378906 899.230469 399.449219 898.78125 408.714844 C 903.296875 406.003906 910.070312 407.359375 913.230469 411.875 C 910.523438 408.488281 915.488281 403.289062 919.78125 404.195312 C 924.070312 405.097656 926.554688 409.390625 928.8125 413.234375 C 927.683594 408.488281 932.878906 404.195312 937.621094 404.195312 C 942.359375 404.195312 946.878906 407.132812 950.941406 409.84375 C 945.070312 403.289062 940.328125 396.058594 936.488281 388.152344 C 936.039062 387.019531 935.359375 385.664062 935.585938 384.535156 C 936.039062 381.597656 939.878906 380.695312 942.8125 381.144531 C 950.941406 382.503906 957.492188 389.734375 958.167969 397.867188 C 968.105469 391.765625 982.78125 396.964844 986.621094 408.035156 C 985.714844 402.839844 989.105469 397.191406 994.296875 395.609375 C 998.136719 394.476562 1002.425781 395.609375 1005.363281 398.546875 C 1004.457031 395.382812 1005.8125 391.089844 1008.976562 389.507812 C 1013.265625 387.246094 1019.136719 389.054688 1022.296875 392.671875 C 1025.683594 396.285156 1027.039062 401.484375 1027.492188 406.226562 C 1035.394531 404.644531 1043.976562 408.035156 1048.945312 414.363281 C 1047.589844 410.519531 1051.425781 405.097656 1056.167969 404.871094 C 1060.683594 404.871094 1064.296875 407.808594 1067.234375 411.425781 C 1066.332031 408.488281 1068.136719 404.644531 1071.074219 403.289062 C 1075.136719 401.484375 1079.652344 403.066406 1083.71875 405.097656 C 1078.75 401.257812 1074.6875 396.058594 1071.976562 390.410156 C 1071.296875 388.828125 1070.621094 387.019531 1071.523438 385.441406 C 1072.203125 384.535156 1073.332031 383.859375 1074.460938 383.632812 C 1083.71875 381.597656 1093.652344 390.636719 1092.296875 400.128906 C 1099.300781 398.320312 1106.976562 403.066406 1109.234375 409.84375 C 1109.460938 406.453125 1113.523438 403.066406 1117.363281 403.742188 C 1122.105469 404.421875 1125.492188 408.941406 1126.847656 413.457031 C 1126.171875 408.714844 1129.105469 403.96875 1133.621094 402.386719 C 1135.878906 401.484375 1138.589844 401.707031 1140.847656 402.613281 C 1139.265625 400.578125 1138.363281 397.867188 1138.589844 395.382812 C 1139.042969 390.636719 1144.234375 386.570312 1148.976562 387.699219 C 1153.71875 389.054688 1155.75 395.832031 1152.136719 399.222656 C 1159.136719 397.414062 1167.042969 403.515625 1166.816406 410.746094 C 1168.621094 402.839844 1182.847656 402.839844 1184.65625 410.972656 C 1186.460938 406.453125 1192.105469 404.421875 1196.847656 405.097656 C 1201.589844 405.777344 1205.882812 408.714844 1209.945312 411.425781 C 1204.753906 406.453125 1201.363281 399.675781 1200.234375 392.671875 C 1200.011719 391.089844 1200.011719 389.28125 1200.460938 387.699219 C 1202.269531 383.40625 1209.042969 383.179688 1212.429688 386.34375 C 1215.816406 389.507812 1216.71875 394.476562 1217.171875 399.222656 C 1229.816406 393.121094 1245.171875 398.09375 1253.527344 408.714844 C 1254.882812 402.613281 1261.429688 398.320312 1267.753906 399.449219 C 1270.460938 399.902344 1279.496094 408.9375 1281.753906 408.9375 C 1274.753906 397.191406 1284.011719 394.703125 1274.980469 384.082031 C 1278.367188 384.988281 1281.753906 385.890625 1284.914062 386.117188 C 1279.496094 380.015625 1276.109375 373.691406 1276.332031 365.328125 C 1271.816406 365.554688 1252.847656 352.449219 1261.882812 349.511719 C 1246.527344 354.707031 1238.171875 349.285156 1234.558594 340.472656 C 1222.816406 347.476562 1213.332031 349.964844 1200.234375 343.863281 C 1197.753906 334.371094 1204.753906 323.527344 1214.460938 321.945312 C 1206.332031 323.976562 1197.300781 320.136719 1192.785156 313.132812 C 1188.042969 322.394531 1174.945312 326.011719 1165.914062 320.589844 C 1167.042969 326.011719 1158.234375 328.949219 1154.171875 325.109375 C 1150.105469 321.265625 1151.6875 316.746094 1153.945312 314.488281 C 1153.945312 308.839844 1151.6875 304.996094 1144.460938 302.738281 C 1149.203125 314.488281 1131.136719 319.460938 1125.492188 314.488281 C 1124.816406 319.683594 1115.78125 329.402344 1106.523438 321.492188 C 1103.363281 327.820312 1106.074219 330.53125 1092.296875 333.242188 C 1099.300781 334.371094 1093.652344 347.476562 1086.652344 348.382812 C 1079.652344 349.285156 1074.460938 340.246094 1077.394531 333.921875 C 1071.976562 341.378906 1056.847656 334.371094 1052.332031 326.238281 C 1048.492188 331.886719 1031.78125 334.824219 1028.621094 321.492188 C 1024.332031 327.820312 1012.136719 330.757812 1005.363281 327.367188 C 1008.976562 330.53125 1008.296875 337.535156 1004.910156 340.472656 C 1001.296875 343.636719 995.878906 343.410156 991.136719 344.089844 C 990.007812 348.832031 984.8125 352.449219 979.84375 351.320312 C 974.878906 350.414062 966.296875 347.476562 966.972656 342.734375 C 959.523438 349.285156 945.75 347.476562 943.265625 340.472656 C 941.230469 334.144531 946.878906 327.140625 952.75 323.976562 C 946.199219 326.238281 937.394531 318.328125 932.652344 313.359375 C 932.652344 313.585938 927.910156 320.363281 923.167969 322.847656 C 916.84375 326.011719 911.875 325.785156 905.101562 324.429688 C 903.296875 328.949219 901.039062 333.695312 897.199219 336.632812 C 893.359375 339.570312 886.8125 339.796875 884.101562 335.726562 C 882.523438 333.242188 882.523438 330.078125 882.523438 327.140625 C 882.746094 322.621094 882.746094 317.878906 882.972656 313.359375 C 882.070312 315.84375 880.488281 318.101562 878.457031 319.910156 C 873.261719 324.203125 865.585938 325.109375 859.714844 321.945312 C 861.972656 326.914062 856.554688 332.789062 851.132812 332.339844 C 846.167969 331.886719 842.101562 327.59375 840.296875 322.847656 C 841.648438 327.820312 834.199219 333.015625 830.132812 329.402344 C 834.875 336.179688 821.328125 343.410156 813.425781 335.726562 C 808.683594 330.984375 815.457031 320.816406 815.683594 316.746094 C 813.875 319.460938 799.199219 328.496094 787.230469 328.496094 C 782.488281 337.988281 765.328125 358.777344 751.101562 362.617188 C 750.875 363.746094 750.875 364.878906 750.648438 365.78125 C 746.808594 365.78125 742.746094 365.554688 738.679688 365.328125 C 735.746094 365.554688 731.90625 368.265625 732.585938 371.429688 Z M 732.585938 371.429688 " fill-opacity="1" fill-rule="nonzero"/></g><path fill="#000000" d="M 658.519531 366.007812 L 658.292969 367.136719 C 652.195312 365.554688 645.648438 364.878906 639.097656 365.101562 L 626.226562 386.117188 L 625.324219 385.441406 L 637.96875 365.101562 C 628.710938 365.554688 619.453125 367.363281 611.097656 370.300781 C 609.96875 372.785156 609.066406 377.757812 608.613281 380.921875 L 607.484375 380.695312 C 607.484375 379.789062 608.390625 374.367188 609.742188 370.753906 C 604.324219 372.785156 599.128906 375.269531 594.613281 377.984375 L 593.257812 393.574219 L 592.128906 393.574219 L 593.484375 378.886719 C 590.097656 381.144531 586.9375 383.40625 584.226562 385.890625 L 583.324219 384.988281 C 585.582031 382.726562 588.292969 380.695312 591.453125 378.660156 C 587.839844 379.113281 584.226562 379.566406 583.550781 378.886719 C 583.324219 378.660156 583.324219 378.433594 583.324219 378.207031 L 584.453125 378.433594 C 584.453125 378.207031 584.453125 378.207031 584.226562 377.984375 C 584.90625 378.433594 589.648438 377.757812 593.9375 377.078125 C 598.90625 374.140625 604.550781 371.429688 610.648438 369.394531 C 610.871094 368.945312 611.097656 368.71875 611.324219 368.492188 C 610.648438 368.492188 609.519531 368.71875 608.613281 368.945312 C 605.226562 369.621094 601.164062 370.300781 599.128906 369.621094 L 599.582031 368.492188 C 601.390625 369.171875 605.453125 368.265625 608.613281 367.816406 C 612.226562 367.136719 612.90625 367.136719 613.355469 367.816406 C 613.582031 368.265625 613.132812 368.71875 612.90625 368.945312 C 621.035156 366.234375 629.613281 364.652344 638.195312 364.199219 C 635.261719 361.941406 628.035156 356.066406 626.226562 354.257812 L 627.132812 353.351562 C 629.390625 355.613281 639.097656 363.296875 640.226562 364.199219 C 645.648438 363.746094 652.195312 364.425781 658.519531 366.007812 Z M 235.578125 359.453125 L 235.578125 358.324219 C 228.351562 358.777344 221.804688 359.679688 215.933594 361.261719 L 200.351562 355.386719 L 199.898438 356.515625 L 213.898438 361.714844 C 205.542969 363.972656 198.769531 367.363281 193.125 370.753906 L 175.285156 369.394531 L 175.285156 370.527344 L 191.542969 371.65625 C 180.480469 379.113281 175.285156 386.796875 174.835938 387.246094 L 175.964844 388.152344 C 176.414062 387.472656 181.382812 379.789062 192.671875 372.558594 C 191.996094 376.628906 190.1875 389.28125 190.414062 391.539062 L 191.542969 391.316406 C 191.320312 389.507812 193.125 376.851562 194.027344 371.65625 C 199.671875 368.265625 206.671875 364.878906 215.253906 362.617188 C 214.800781 366.910156 213.671875 379.789062 214.351562 381.144531 L 215.480469 380.695312 C 215.253906 379.789062 215.707031 370.527344 216.609375 362.164062 C 222.253906 360.808594 228.578125 359.90625 235.578125 359.453125 Z M 335.160156 348.382812 L 334.480469 347.929688 L 334.03125 348.609375 C 332.902344 350.640625 330.417969 352.675781 327.257812 353.804688 C 326.351562 353.351562 324.996094 352.449219 323.644531 351.320312 L 330.644531 333.015625 L 329.515625 332.566406 L 322.738281 350.414062 C 318.675781 347.027344 313.707031 341.828125 309.191406 336.859375 L 311.902344 323.074219 L 310.773438 322.847656 L 308.289062 335.726562 C 303.546875 330.304688 299.253906 325.109375 297.675781 322.394531 L 296.546875 323.074219 C 298.125 325.558594 302.417969 330.757812 307.160156 336.40625 L 300.160156 336.40625 L 299.480469 336.632812 C 299.480469 336.632812 293.382812 337.535156 289.769531 334.371094 C 287.511719 332.113281 286.609375 329.175781 286.835938 325.332031 L 285.707031 325.332031 C 285.480469 329.628906 286.382812 333.015625 288.867188 335.050781 C 292.253906 337.988281 297.222656 337.988281 299.03125 337.761719 C 299.03125 338.441406 299.03125 338.890625 299.03125 339.570312 C 299.03125 348.15625 299.03125 358.324219 302.867188 363.070312 C 299.480469 362.164062 293.382812 359.226562 289.320312 351.996094 L 288.640625 350.867188 L 288.191406 351.996094 C 287.964844 352.675781 286.609375 353.804688 284.351562 354.933594 C 283.449219 353.351562 281.417969 350.867188 278.707031 348.382812 L 278.707031 333.921875 L 277.578125 333.921875 L 277.578125 347.253906 C 274.191406 344.089844 270.125 340.699219 265.835938 337.535156 L 264.253906 327.59375 L 263.125 327.59375 L 264.253906 336.632812 C 256.351562 330.757812 248.222656 325.785156 243.480469 324.65625 L 243.253906 325.785156 C 247.769531 326.914062 255.898438 331.886719 263.804688 337.761719 L 252.285156 340.019531 L 252.511719 341.152344 L 264.933594 338.664062 C 269.222656 342.054688 273.511719 345.445312 276.898438 348.382812 L 263.578125 351.769531 L 263.804688 352.902344 L 277.804688 349.511719 C 280.289062 351.996094 282.320312 354.03125 283.222656 355.613281 C 282.769531 355.839844 282.320312 356.066406 281.867188 356.066406 C 274.867188 358.777344 265.160156 360.359375 259.289062 357.644531 L 258.835938 358.777344 C 264.933594 361.714844 275.09375 360.132812 282.320312 357.195312 C 283.902344 356.515625 287.289062 355.160156 288.640625 353.351562 C 294.738281 363.296875 304.449219 364.652344 304.902344 364.652344 L 304.902344 363.972656 L 305.125 363.519531 C 299.707031 360.359375 299.707031 348.382812 299.933594 339.34375 C 299.933594 338.664062 299.933594 337.988281 299.933594 337.308594 L 308.289062 337.308594 C 312.351562 341.828125 316.867188 346.574219 320.707031 349.964844 C 315.964844 349.285156 305.804688 347.929688 303.09375 347.929688 L 303.09375 349.058594 C 306.03125 349.058594 319.351562 350.867188 322.289062 351.320312 C 323.417969 352.222656 324.546875 353.128906 325.449219 353.804688 C 321.609375 354.707031 316.644531 354.257812 310.996094 351.546875 L 310.320312 351.320312 L 310.09375 351.996094 C 306.03125 368.945312 300.609375 377.304688 294.511719 376.402344 L 294.289062 377.53125 C 294.738281 377.53125 294.964844 377.53125 295.417969 377.53125 C 301.738281 377.53125 306.933594 369.394531 311.222656 352.902344 C 322.515625 358.097656 331.320312 354.257812 334.480469 349.511719 C 341.707031 356.515625 347.578125 361.035156 357.515625 359.90625 L 357.289062 358.777344 C 348.03125 360.132812 342.386719 355.613281 335.160156 348.382812 Z M 435.644531 356.515625 C 436.097656 363.746094 429.773438 373.011719 424.355469 374.140625 L 424.128906 373.011719 C 426.160156 372.558594 428.417969 370.527344 430.449219 368.039062 C 426.386719 366.910156 422.546875 361.261719 421.644531 359.453125 C 416.902344 362.164062 413.0625 363.296875 404.484375 359.453125 C 404.257812 361.035156 402.902344 362.617188 401.320312 363.972656 C 398.386719 366.007812 394.773438 366.234375 391.386719 364.425781 L 391.835938 363.296875 C 396.128906 365.328125 399.0625 363.972656 400.644531 362.84375 C 402.675781 361.488281 403.578125 359.679688 403.355469 358.550781 L 403.355469 357.421875 L 404.257812 357.871094 C 408.773438 359.90625 411.933594 360.582031 414.644531 360.359375 L 421.417969 348.609375 C 415.320312 347.253906 408.773438 346.800781 401.546875 347.027344 L 395.902344 359.226562 L 394.773438 358.777344 L 400.191406 347.253906 C 393.871094 347.703125 387.09375 348.609375 380.09375 350.191406 L 379.871094 349.058594 C 387.09375 347.476562 393.871094 346.574219 400.191406 346.121094 C 388.449219 332.113281 388.449219 332.113281 388.675781 331.660156 L 388.902344 331.207031 L 389.351562 331.207031 L 389.351562 331.886719 L 389.804688 331.660156 C 390.257812 332.339844 397.257812 340.699219 401.773438 346.121094 C 409 345.894531 415.546875 346.347656 421.417969 347.703125 C 420.289062 345.21875 416.902344 337.761719 414.417969 332.789062 L 415.546875 332.339844 C 420.742188 343.410156 422.320312 347.027344 422.773438 348.15625 C 428.644531 349.511719 433.839844 351.769531 438.578125 354.707031 C 441.742188 354.03125 444.449219 352.449219 446.484375 350.191406 C 448.289062 348.15625 448.96875 345.894531 448.742188 344.089844 L 449.871094 343.863281 C 450.097656 346.121094 449.191406 348.609375 447.386719 350.867188 C 444.449219 354.484375 440.160156 356.289062 435.644531 356.515625 Z M 434.515625 355.386719 L 435.191406 355.386719 C 435.644531 355.386719 436.097656 355.386719 436.546875 355.386719 C 432.257812 352.902344 427.515625 350.867188 422.320312 349.738281 L 415.773438 360.808594 C 417.578125 360.359375 419.386719 359.679688 421.417969 358.550781 L 421.871094 358.324219 L 422.097656 358.777344 C 422.097656 358.777344 426.839844 366.683594 431.128906 367.363281 C 433.386719 363.972656 434.96875 359.90625 434.515625 356.289062 Z M 416.902344 369.621094 C 413.742188 370.074219 410.578125 371.429688 407.417969 373.238281 C 404.484375 373.011719 396.128906 372.109375 395 372.785156 L 395.449219 373.914062 C 396.128906 373.691406 400.871094 373.914062 405.835938 374.367188 C 401.09375 377.304688 396.355469 381.371094 392.289062 385.214844 C 388.449219 385.664062 383.933594 385.890625 383.257812 385.441406 C 383.484375 385.441406 383.484375 385.664062 383.484375 385.890625 L 382.351562 385.441406 C 382.128906 385.664062 382.351562 385.890625 382.351562 386.34375 C 382.578125 386.570312 383.03125 387.472656 390.933594 386.570312 C 388.222656 389.28125 385.515625 391.992188 383.484375 394.253906 C 381.902344 395.832031 380.773438 397.191406 379.644531 398.320312 L 380.546875 399.222656 C 381.675781 398.09375 383.03125 396.738281 384.386719 395.15625 C 386.644531 392.671875 389.351562 389.957031 392.289062 387.019531 L 394.773438 402.160156 L 395.902344 401.933594 L 393.191406 386.117188 C 397.484375 382.050781 402.226562 377.984375 407.191406 375.046875 L 411.03125 396.964844 L 412.160156 396.738281 L 408.09375 374.367188 C 411.03125 372.785156 414.191406 371.65625 417.128906 370.976562 Z M 340.128906 370.527344 L 340.128906 369.847656 L 323.191406 362.617188 L 322.738281 363.519531 L 338.996094 370.527344 L 338.996094 370.976562 C 334.707031 372.785156 330.644531 375.269531 327.03125 377.757812 L 308.964844 372.558594 L 308.738281 373.691406 L 325.902344 378.660156 C 318.675781 384.308594 313.253906 390.410156 310.773438 393.347656 L 311.675781 394.027344 C 313.933594 391.089844 319.351562 384.988281 326.351562 379.566406 C 325.902344 382.953125 324.773438 391.539062 324.09375 393.347656 L 325.222656 393.574219 C 325.902344 391.316406 327.257812 380.46875 327.707031 378.433594 C 331.09375 375.949219 334.933594 373.691406 338.996094 371.882812 L 338.996094 391.089844 L 340.128906 391.089844 L 340.128906 371.429688 C 345.546875 369.171875 351.417969 368.039062 357.738281 368.492188 L 357.738281 367.363281 C 351.644531 367.136719 345.773438 368.265625 340.128906 370.527344 Z M 292.253906 366.007812 C 288.867188 366.234375 283.902344 368.492188 278.480469 371.429688 L 278.480469 370.976562 L 259.289062 367.589844 L 259.0625 368.71875 L 277.351562 371.882812 L 277.351562 372.109375 C 273.289062 374.59375 268.769531 377.304688 264.707031 380.015625 L 248.675781 377.757812 L 248.449219 378.886719 L 263.125 380.921875 C 254.996094 386.570312 248.675781 391.992188 247.996094 393.347656 L 249.125 393.800781 C 249.578125 392.671875 256.125 387.472656 264.253906 381.597656 L 262.898438 398.09375 L 264.027344 398.09375 L 265.382812 380.695312 C 269.222656 377.984375 273.289062 375.496094 277.125 373.238281 L 277.125 391.089844 L 278.253906 391.089844 L 278.253906 372.785156 C 283.675781 369.621094 288.640625 367.363281 292.03125 367.136719 Z M 553.96875 366.007812 C 549.453125 366.234375 544.710938 367.816406 540.195312 370.300781 L 524.839844 367.136719 L 524.613281 368.265625 L 538.613281 371.203125 C 534.550781 373.464844 530.710938 376.402344 527.097656 379.566406 L 513.546875 377.757812 L 513.324219 378.886719 L 525.742188 380.46875 C 519.871094 385.890625 514.453125 391.992188 510.160156 397.867188 L 511.066406 398.546875 C 515.128906 392.894531 520.324219 386.796875 525.96875 381.597656 C 525.742188 398.09375 525.96875 398.320312 526.195312 398.546875 L 526.644531 398.769531 L 526.644531 398.09375 L 527.097656 397.867188 C 526.871094 396.964844 527.097656 387.019531 527.097656 380.46875 C 530.9375 377.078125 535.226562 373.914062 539.292969 371.429688 C 539.515625 377.53125 539.515625 386.34375 539.292969 387.019531 L 539.742188 387.246094 L 540.195312 387.472656 C 540.644531 386.34375 540.421875 374.820312 540.195312 370.753906 C 544.710938 368.492188 549.226562 366.910156 553.515625 366.683594 Z M 551.710938 348.832031 C 557.582031 345.671875 557.808594 337.535156 557.808594 337.082031 L 556.679688 337.082031 C 556.679688 337.082031 556.679688 346.121094 549.902344 348.382812 L 546.515625 349.511719 L 550.128906 349.511719 C 551.257812 349.511719 554.644531 351.996094 557.582031 356.515625 C 557.808594 356.96875 558.035156 357.421875 558.484375 357.871094 C 552.164062 358.097656 544.9375 354.707031 538.386719 348.609375 L 537.9375 348.15625 L 537.484375 348.832031 C 536.582031 350.414062 535.453125 351.996094 533.871094 352.902344 C 532.515625 351.320312 531.160156 349.738281 529.808594 348.15625 C 530.484375 346.347656 534.550781 335.953125 533.195312 328.496094 L 532.066406 328.722656 C 533.195312 335.277344 529.808594 344.316406 528.902344 347.027344 C 525.289062 342.957031 521.226562 339.34375 516.710938 336.179688 L 515.355469 325.332031 L 514.226562 325.558594 L 515.355469 335.503906 C 510.613281 332.113281 505.871094 329.402344 500.902344 327.367188 L 500.453125 328.496094 C 505.417969 330.53125 510.386719 333.242188 514.902344 336.632812 C 512.195312 337.535156 507 339.34375 505.417969 339.34375 L 505.417969 340.472656 C 507.679688 340.472656 514.453125 337.988281 516.03125 337.535156 C 520.324219 340.699219 524.386719 344.316406 528 348.15625 C 521.902344 349.511719 515.582031 350.640625 514.679688 350.191406 C 514.679688 350.191406 514.679688 350.191406 514.902344 350.414062 L 513.773438 350.867188 C 513.773438 351.09375 514 351.320312 515.582031 351.320312 C 517.386719 351.320312 521.226562 350.867188 528.902344 349.058594 C 530.257812 350.640625 531.613281 352.222656 532.742188 353.804688 C 530.257812 355.160156 526.644531 355.839844 521.226562 355.839844 L 520.773438 355.839844 L 520.773438 356.289062 C 520.097656 360.808594 514.453125 367.589844 508.128906 367.589844 L 508.128906 368.265625 C 515.128906 368.265625 521 361.261719 521.902344 356.515625 C 531.839844 356.515625 535.453125 354.03125 538.160156 349.738281 C 544.9375 356.066406 552.613281 359.226562 559.386719 358.777344 C 561.871094 363.296875 564.808594 371.203125 561.195312 379.789062 L 562.324219 380.242188 C 566.839844 369.394531 561.421875 359.453125 558.9375 355.613281 C 556.226562 352.675781 553.742188 349.964844 551.710938 348.832031 Z M 591.453125 367.136719 L 592.128906 366.234375 C 591 365.328125 589.421875 363.972656 587.839844 362.617188 L 588.292969 362.617188 L 588.519531 362.164062 C 588.742188 361.488281 594.164062 344.992188 592.582031 338.664062 L 591.453125 338.890625 C 592.808594 344.316406 588.519531 358.777344 587.613281 361.488281 C 587.386719 361.488281 587.164062 361.488281 586.710938 361.488281 C 582.648438 357.644531 578.128906 352.449219 574.515625 347.027344 L 577.90625 334.597656 L 576.777344 334.371094 L 573.613281 345.894531 C 570.453125 341.378906 568.195312 336.632812 567.292969 332.566406 L 566.164062 332.789062 C 567.066406 337.082031 569.550781 342.054688 572.9375 347.027344 C 569.097656 347.703125 564.128906 348.832031 563.226562 348.832031 L 563.226562 349.964844 C 564.355469 349.964844 571.808594 348.609375 573.613281 348.15625 C 577 353.128906 581.292969 357.871094 584.90625 361.714844 C 570.226562 360.808594 569.777344 361.488281 569.550781 361.941406 L 569.777344 362.617188 L 570.226562 362.164062 L 570.679688 362.164062 C 570.679688 362.390625 570.453125 362.390625 570.453125 362.617188 C 571.355469 362.164062 578.808594 362.390625 586.035156 362.84375 C 588.066406 364.199219 589.871094 365.78125 591.453125 367.136719 Z M 502.710938 358.324219 C 496.613281 358.550781 490.289062 359.679688 483.742188 361.488281 C 481.710938 360.359375 472 355.386719 469.742188 355.386719 L 469.742188 356.515625 C 471.097656 356.515625 477.417969 359.453125 482.160156 361.941406 C 475.839844 363.746094 469.515625 366.234375 463.644531 368.945312 C 459.804688 367.363281 453.03125 364.425781 451.902344 363.746094 L 451.226562 364.652344 C 452.355469 365.554688 458.675781 368.039062 462.289062 369.621094 C 450.546875 375.046875 440.613281 381.371094 436.546875 384.988281 L 437.226562 385.890625 C 441.96875 381.597656 452.128906 375.496094 463.871094 370.300781 C 464.097656 370.300781 464.324219 370.527344 464.324219 370.527344 L 457.773438 391.316406 L 458.902344 391.765625 L 465.902344 369.847656 L 465.453125 369.621094 C 471.097656 367.136719 477.195312 364.878906 483.289062 363.070312 L 478.773438 393.574219 L 479.902344 393.800781 L 484.417969 362.84375 C 490.96875 361.035156 497.289062 359.90625 502.9375 359.679688 Z M 801.230469 363.972656 C 802.359375 363.070312 812.070312 355.386719 814.328125 353.128906 L 815.230469 354.03125 C 813.425781 355.839844 806.199219 361.714844 803.261719 363.972656 C 811.84375 364.425781 820.648438 366.007812 828.554688 368.71875 C 828.328125 368.492188 827.875 368.265625 828.101562 367.589844 C 828.328125 366.910156 829.230469 366.910156 832.84375 367.589844 C 836.003906 368.039062 840.070312 368.71875 841.875 368.265625 L 842.328125 369.394531 C 840.296875 370.074219 836.003906 369.394531 832.84375 368.71875 C 831.941406 368.492188 830.8125 368.492188 830.132812 368.265625 C 830.359375 368.492188 830.585938 368.945312 830.8125 369.171875 C 836.910156 371.203125 842.554688 373.914062 847.519531 376.851562 C 851.585938 377.53125 856.554688 377.984375 857.230469 377.757812 C 857.230469 377.757812 857.003906 377.984375 857.003906 378.207031 L 858.132812 377.984375 C 858.132812 378.207031 858.132812 378.433594 857.910156 378.660156 C 857.230469 379.339844 853.617188 379.113281 850.003906 378.433594 C 852.941406 380.46875 855.648438 382.503906 858.132812 384.761719 L 857.230469 385.664062 C 854.519531 383.179688 851.359375 380.921875 847.972656 378.660156 L 849.328125 393.347656 L 848.199219 393.347656 L 846.84375 377.757812 C 842.328125 375.046875 837.132812 372.558594 831.714844 370.527344 C 833.070312 374.140625 833.746094 379.789062 833.972656 380.46875 L 832.84375 380.695312 C 832.390625 377.53125 831.488281 372.558594 830.359375 370.074219 C 822.003906 367.136719 812.746094 365.101562 803.488281 364.878906 L 816.132812 385.214844 L 815.230469 385.890625 L 802.359375 364.878906 C 795.8125 364.652344 789.488281 365.328125 783.164062 366.910156 L 782.941406 365.78125 C 788.132812 364.425781 794.683594 363.746094 801.230469 363.972656 Z M 1223.71875 362.390625 C 1224.398438 370.753906 1225.074219 380.015625 1224.847656 380.921875 L 1225.976562 381.371094 C 1226.65625 380.015625 1225.527344 366.910156 1225.074219 362.84375 C 1233.65625 365.101562 1240.65625 368.492188 1246.300781 371.882812 C 1247.203125 376.851562 1249.011719 389.734375 1248.785156 391.539062 L 1249.914062 391.765625 C 1250.140625 389.734375 1248.332031 377.078125 1247.65625 372.785156 C 1258.945312 380.015625 1263.914062 387.699219 1264.367188 388.378906 L 1265.269531 387.699219 C 1264.816406 387.019531 1259.851562 379.339844 1248.558594 372.109375 L 1264.816406 370.976562 L 1264.816406 369.847656 L 1246.980469 371.203125 C 1241.558594 367.816406 1234.558594 364.425781 1226.203125 362.164062 L 1240.203125 356.96875 L 1239.753906 355.839844 L 1224.171875 361.714844 C 1218.300781 360.132812 1211.753906 359.226562 1204.527344 358.777344 L 1204.527344 359.90625 C 1211.753906 359.90625 1218.074219 360.808594 1223.71875 362.390625 Z M 1082.589844 359.003906 L 1082.363281 360.132812 C 1092.523438 361.261719 1098.171875 356.742188 1105.394531 349.738281 C 1108.558594 354.484375 1117.363281 358.324219 1128.65625 353.128906 C 1132.71875 369.621094 1137.914062 377.757812 1144.460938 377.757812 C 1144.914062 377.757812 1145.136719 377.757812 1145.589844 377.757812 L 1145.363281 376.628906 C 1139.265625 377.53125 1133.847656 369.171875 1129.785156 352.222656 L 1129.558594 351.546875 L 1128.878906 351.769531 C 1123.234375 354.484375 1118.492188 354.933594 1114.429688 354.03125 C 1115.332031 353.351562 1116.460938 352.675781 1117.589844 351.546875 C 1120.523438 351.09375 1133.847656 349.285156 1136.785156 349.285156 L 1136.785156 348.15625 C 1134.074219 348.15625 1123.914062 349.511719 1119.171875 350.191406 C 1123.007812 346.800781 1127.523438 342.054688 1131.589844 337.535156 L 1139.945312 337.535156 C 1139.945312 338.214844 1139.945312 338.890625 1139.945312 339.570312 C 1139.945312 348.382812 1140.171875 360.582031 1134.75 363.746094 L 1134.976562 364.199219 L 1134.976562 364.878906 C 1135.429688 364.878906 1145.136719 363.519531 1151.234375 353.578125 C 1152.589844 355.160156 1155.976562 356.742188 1157.558594 357.421875 C 1164.785156 360.359375 1174.945312 361.941406 1181.042969 359.003906 L 1180.589844 357.871094 C 1174.71875 360.808594 1165.007812 359.226562 1158.007812 356.289062 C 1157.558594 356.066406 1157.105469 355.839844 1156.65625 355.839844 C 1157.558594 354.257812 1159.589844 352.222656 1162.074219 349.738281 L 1176.074219 353.128906 L 1176.300781 351.996094 L 1162.976562 348.609375 C 1166.363281 345.445312 1170.429688 342.054688 1174.945312 338.890625 L 1187.363281 341.378906 L 1187.589844 340.246094 L 1176.074219 337.988281 C 1183.75 332.339844 1191.882812 327.140625 1196.625 326.011719 L 1196.398438 324.882812 C 1191.65625 326.011719 1183.527344 330.984375 1175.621094 336.859375 L 1176.75 327.820312 L 1175.621094 327.59375 L 1174.269531 337.761719 C 1169.976562 340.925781 1165.914062 344.539062 1162.527344 347.476562 L 1162.527344 334.144531 L 1161.398438 334.144531 L 1161.398438 348.609375 C 1158.6875 351.320312 1156.65625 353.578125 1155.75 355.160156 C 1153.265625 354.03125 1152.136719 352.902344 1151.914062 352.222656 L 1151.460938 351.09375 L 1150.785156 352.222656 C 1146.71875 359.453125 1140.621094 362.164062 1137.234375 363.296875 C 1141.300781 358.550781 1141.300781 348.15625 1141.074219 339.796875 C 1141.074219 339.117188 1141.074219 338.441406 1141.074219 337.988281 C 1142.878906 338.214844 1147.847656 338.214844 1151.234375 335.277344 C 1153.492188 333.015625 1154.621094 329.851562 1154.398438 325.558594 L 1153.265625 325.558594 C 1153.492188 329.402344 1152.589844 332.339844 1150.558594 334.371094 C 1146.945312 337.761719 1140.847656 336.632812 1140.847656 336.632812 L 1140.171875 336.40625 L 1132.945312 336.40625 C 1137.914062 330.757812 1141.976562 325.558594 1143.558594 323.074219 L 1142.65625 322.394531 C 1141.074219 324.882812 1136.785156 330.078125 1132.042969 335.726562 L 1129.558594 322.847656 L 1128.429688 323.074219 L 1130.914062 336.859375 C 1126.394531 341.828125 1121.429688 347.027344 1117.363281 350.414062 L 1110.589844 332.566406 L 1109.460938 333.015625 L 1116.460938 351.320312 C 1115.105469 352.449219 1113.976562 353.351562 1112.847656 353.804688 C 1109.460938 352.675781 1107.203125 350.640625 1106.074219 348.609375 L 1105.621094 347.929688 L 1105.171875 348.382812 C 1097.945312 355.613281 1092.300781 360.132812 1082.589844 359.003906 Z M 993.167969 351.320312 C 991.136719 349.058594 990.234375 346.574219 990.683594 344.316406 L 991.8125 344.539062 C 991.585938 346.347656 992.265625 348.609375 994.070312 350.640625 C 996.105469 352.902344 998.8125 354.484375 1001.976562 355.160156 C 1006.71875 352.222656 1011.910156 349.964844 1017.78125 348.609375 C 1018.234375 347.253906 1019.8125 343.863281 1025.007812 332.789062 L 1026.136719 333.242188 C 1023.652344 338.441406 1020.265625 345.671875 1019.136719 348.15625 C 1025.234375 346.800781 1031.78125 346.347656 1038.78125 346.574219 C 1043.523438 341.152344 1050.296875 332.789062 1050.75 332.113281 L 1051.203125 332.339844 L 1051.203125 331.660156 L 1051.652344 331.660156 L 1051.878906 332.113281 C 1052.105469 332.566406 1052.105469 332.789062 1040.363281 346.574219 C 1046.683594 347.027344 1053.460938 347.929688 1060.6875 349.511719 L 1060.460938 350.640625 C 1053.234375 349.058594 1046.683594 348.15625 1040.363281 347.703125 L 1045.78125 359.226562 L 1044.652344 359.679688 L 1039.007812 347.476562 C 1031.78125 347.253906 1025.234375 347.703125 1019.136719 349.058594 L 1025.910156 360.808594 C 1028.621094 361.035156 1031.78125 360.359375 1036.296875 358.324219 L 1037.203125 357.871094 L 1037.203125 359.003906 C 1036.976562 360.132812 1038.105469 361.941406 1039.910156 363.296875 C 1041.265625 364.425781 1044.425781 365.78125 1048.71875 363.746094 L 1049.167969 364.878906 C 1045.78125 366.457031 1042.167969 366.457031 1039.234375 364.425781 C 1037.425781 363.296875 1036.296875 361.488281 1036.074219 359.90625 C 1027.492188 363.746094 1023.652344 362.390625 1018.910156 359.90625 C 1017.78125 361.714844 1013.941406 367.363281 1010.105469 368.492188 C 1011.910156 370.976562 1014.394531 373.011719 1016.425781 373.464844 L 1016.203125 374.59375 C 1011.007812 373.464844 1004.460938 364.199219 1004.910156 356.96875 C 1000.167969 356.289062 995.878906 354.484375 993.167969 351.320312 Z M 1005.8125 356.066406 C 1005.363281 359.679688 1006.941406 363.746094 1009.199219 367.136719 C 1013.492188 366.457031 1018.007812 358.777344 1018.234375 358.550781 L 1018.460938 358.097656 L 1018.910156 358.324219 C 1020.941406 359.453125 1022.75 360.359375 1024.554688 360.582031 L 1018.007812 349.511719 C 1012.8125 350.867188 1008.070312 352.675781 1003.78125 355.160156 C 1004.234375 355.160156 1004.683594 355.160156 1005.136719 355.160156 L 1005.8125 355.160156 Z M 1023.203125 370.753906 C 1026.136719 371.203125 1029.074219 372.332031 1032.234375 374.140625 L 1028.167969 396.511719 L 1029.296875 396.738281 L 1033.136719 374.820312 C 1038.105469 377.757812 1042.847656 381.824219 1047.136719 385.890625 L 1044.425781 401.707031 L 1045.554688 401.933594 L 1048.039062 386.796875 C 1050.976562 389.734375 1053.6875 392.445312 1055.945312 394.929688 C 1057.523438 396.511719 1058.652344 397.867188 1059.78125 398.996094 L 1060.6875 398.09375 C 1059.558594 396.964844 1058.203125 395.609375 1056.847656 394.027344 C 1054.816406 391.765625 1052.105469 389.054688 1049.394531 386.34375 C 1057.074219 387.019531 1057.75 386.34375 1057.976562 386.117188 C 1058.203125 385.890625 1058.203125 385.664062 1057.976562 385.214844 L 1056.847656 385.664062 C 1056.847656 385.441406 1056.847656 385.214844 1057.074219 385.214844 C 1056.394531 385.664062 1051.878906 385.214844 1048.039062 384.988281 C 1043.976562 381.144531 1039.234375 377.078125 1034.492188 374.140625 C 1039.234375 373.691406 1044.203125 373.464844 1044.878906 373.691406 L 1045.332031 372.558594 C 1044.203125 371.882812 1035.621094 372.785156 1032.910156 373.011719 C 1029.75 371.203125 1026.589844 370.074219 1023.425781 369.394531 Z M 1082.363281 367.816406 L 1082.363281 368.945312 C 1088.6875 368.492188 1094.558594 369.621094 1099.976562 371.882812 L 1099.976562 391.539062 L 1101.105469 391.539062 L 1101.105469 372.332031 C 1105.171875 374.140625 1109.007812 376.402344 1112.394531 378.886719 C 1112.621094 380.921875 1114.203125 391.765625 1114.878906 394.027344 L 1116.007812 393.800781 C 1115.558594 391.992188 1114.203125 383.40625 1113.75 380.015625 C 1120.75 385.441406 1126.171875 391.316406 1128.429688 394.476562 L 1129.332031 393.800781 C 1126.847656 390.863281 1121.652344 384.535156 1114.203125 379.113281 L 1131.363281 374.140625 L 1131.136719 373.011719 L 1113.074219 378.207031 C 1109.460938 375.722656 1105.394531 373.238281 1101.105469 371.429688 L 1101.105469 370.527344 L 1117.363281 363.519531 L 1116.914062 362.390625 L 1099.976562 369.621094 L 1099.976562 370.527344 C 1094.558594 368.265625 1088.6875 367.136719 1082.363281 367.816406 Z M 1148.074219 367.136719 C 1151.460938 367.589844 1156.429688 369.621094 1161.847656 372.785156 L 1161.847656 391.316406 L 1162.976562 391.316406 L 1162.976562 373.464844 C 1166.816406 375.722656 1170.878906 378.433594 1174.71875 380.921875 L 1176.074219 398.320312 L 1177.203125 398.320312 L 1175.847656 381.824219 C 1183.976562 387.472656 1190.527344 392.894531 1190.976562 394.027344 L 1192.105469 393.574219 C 1191.429688 392.21875 1184.882812 386.796875 1176.976562 381.144531 L 1191.65625 379.113281 L 1191.429688 377.984375 L 1175.398438 380.242188 C 1171.332031 377.53125 1167.042969 374.59375 1162.75 372.332031 L 1162.75 372.109375 L 1181.042969 368.945312 L 1180.816406 367.816406 L 1161.621094 371.203125 L 1161.621094 371.65625 C 1156.203125 368.71875 1151.234375 366.457031 1147.847656 366.234375 Z M 886.359375 367.136719 C 890.652344 367.363281 895.167969 368.945312 899.683594 371.203125 C 899.457031 375.269531 899.230469 386.796875 899.683594 387.925781 L 900.136719 387.699219 L 900.585938 387.472656 C 900.359375 386.570312 900.359375 377.757812 900.585938 371.882812 C 904.878906 374.140625 908.941406 377.304688 912.78125 380.921875 C 913.007812 387.472656 913.007812 397.414062 912.78125 398.320312 L 913.230469 398.546875 L 913.230469 399.222656 L 913.683594 398.996094 C 913.910156 398.769531 914.136719 398.546875 913.910156 382.050781 C 919.554688 387.246094 924.523438 393.121094 928.8125 398.996094 L 929.714844 398.320312 C 925.425781 392.445312 920.007812 386.117188 914.136719 380.921875 L 926.554688 379.339844 L 926.328125 378.207031 L 912.78125 380.015625 C 909.167969 376.851562 905.328125 373.914062 901.265625 371.65625 L 915.265625 368.71875 L 915.039062 367.589844 L 899.683594 370.753906 C 895.167969 368.265625 890.425781 366.683594 885.910156 366.457031 Z M 881.84375 355.839844 C 879.359375 359.679688 873.941406 369.621094 878.457031 380.46875 L 879.585938 380.015625 C 875.972656 371.429688 878.910156 363.519531 881.394531 359.003906 C 887.941406 359.453125 895.617188 356.066406 902.617188 349.964844 C 905.328125 354.257812 909.167969 356.742188 918.878906 356.742188 C 919.78125 361.714844 925.652344 368.492188 932.652344 368.492188 L 932.652344 367.363281 C 926.101562 367.363281 920.683594 360.582031 920.007812 356.066406 L 920.007812 355.613281 L 919.554688 355.613281 C 914.136719 355.613281 910.523438 354.933594 908.039062 353.578125 C 909.167969 351.996094 910.523438 350.414062 911.878906 348.832031 C 919.554688 350.640625 923.394531 351.09375 925.199219 351.09375 C 926.78125 351.09375 927.007812 350.640625 927.007812 350.640625 L 925.878906 350.191406 C 925.878906 350.191406 926.101562 349.964844 926.101562 349.964844 C 925.199219 350.414062 918.878906 349.285156 912.78125 347.929688 C 916.394531 344.089844 920.457031 340.472656 924.75 337.308594 C 926.328125 337.988281 933.101562 340.246094 935.359375 340.246094 L 935.359375 338.890625 C 933.78125 338.890625 928.585938 337.308594 925.878906 336.179688 C 930.394531 333.015625 935.359375 330.078125 940.328125 328.046875 L 939.878906 326.914062 C 934.910156 328.949219 929.941406 331.660156 925.425781 335.050781 L 926.554688 325.109375 L 925.425781 324.882812 L 924.070312 335.726562 C 919.78125 338.890625 915.714844 342.507812 911.878906 346.574219 C 910.746094 343.863281 907.585938 334.597656 908.714844 328.269531 L 907.585938 328.046875 C 906.457031 335.503906 910.296875 345.671875 910.972656 347.703125 C 909.617188 349.285156 908.265625 350.867188 906.910156 352.449219 C 905.328125 351.320312 904.199219 349.964844 903.296875 348.382812 L 902.84375 347.703125 L 902.394531 348.15625 C 895.84375 354.257812 888.617188 357.644531 882.296875 357.421875 C 882.523438 356.96875 882.746094 356.515625 883.199219 356.066406 C 886.132812 351.546875 889.523438 349.058594 890.652344 349.058594 L 894.265625 349.058594 L 890.875 347.929688 C 884.328125 345.671875 884.101562 336.859375 884.101562 336.632812 L 882.746094 336.632812 C 882.746094 337.082031 882.746094 345.21875 888.84375 348.382812 C 886.585938 349.964844 884.101562 352.675781 881.84375 355.839844 Z M 854.296875 362.390625 C 861.523438 361.941406 869.199219 361.714844 869.875 362.164062 C 869.875 362.164062 869.652344 361.941406 869.652344 361.714844 L 870.101562 361.714844 L 870.554688 362.164062 L 870.78125 361.488281 C 870.554688 361.035156 870.328125 360.359375 855.425781 361.261719 C 859.261719 357.421875 863.328125 352.675781 866.714844 347.703125 C 868.523438 348.15625 875.972656 349.511719 877.101562 349.511719 L 877.101562 348.382812 C 876.199219 348.382812 871.230469 347.476562 867.394531 346.574219 C 870.554688 341.828125 873.265625 336.859375 874.167969 332.339844 L 873.039062 332.113281 C 872.132812 336.179688 869.875 340.925781 866.714844 345.445312 L 863.554688 333.921875 L 862.425781 334.144531 L 865.8125 346.574219 C 861.972656 351.996094 857.457031 356.96875 853.617188 361.035156 C 853.390625 361.035156 853.167969 361.035156 852.714844 361.035156 C 851.8125 358.324219 847.523438 344.089844 848.875 338.441406 L 847.746094 338.214844 C 846.167969 344.539062 851.585938 361.035156 851.8125 361.714844 L 852.039062 362.164062 L 852.488281 362.164062 C 850.910156 363.519531 849.554688 364.878906 848.199219 365.78125 L 848.875 366.683594 C 850.457031 365.78125 852.261719 364.199219 854.296875 362.390625 Z M 937.621094 359.453125 C 943.265625 359.679688 949.585938 360.808594 956.136719 362.617188 L 960.652344 393.574219 L 961.78125 393.347656 L 957.265625 362.84375 C 963.363281 364.652344 969.234375 366.910156 975.105469 369.394531 L 974.652344 369.621094 L 981.652344 391.539062 L 982.78125 391.089844 L 976.234375 370.300781 C 976.457031 370.300781 976.457031 370.074219 976.683594 370.074219 C 988.425781 375.269531 998.589844 381.597656 1003.328125 385.664062 L 1004.007812 384.761719 C 999.941406 381.144531 990.007812 374.820312 978.265625 369.394531 C 981.878906 367.816406 988.199219 365.328125 989.328125 364.425781 L 988.652344 363.519531 C 987.523438 364.425781 980.75 367.136719 976.910156 368.71875 C 971.039062 366.007812 964.714844 363.519531 958.394531 361.714844 C 963.136719 359.226562 969.234375 356.289062 970.8125 356.289062 L 970.8125 355.160156 C 968.554688 355.160156 958.84375 360.359375 956.8125 361.261719 C 950.265625 359.453125 943.941406 358.324219 937.84375 358.097656 Z M 937.621094 359.453125 " fill-opacity="1" fill-rule="nonzero"/><g clip-path="url(#1610877d5a)"><path fill="#f63b4b" d="M 382.804688 360.582031 C 382.578125 360.582031 382.128906 360.582031 381.902344 360.582031 C 384.835938 357.644531 386.417969 353.578125 385.515625 349.285156 C 384.160156 342.507812 377.613281 338.214844 370.835938 339.570312 C 364.0625 340.925781 359.773438 347.476562 361.128906 354.257812 C 361.351562 354.933594 361.351562 355.386719 361.578125 356.066406 C 361.578125 356.066406 361.351562 356.066406 361.351562 356.066406 C 354.578125 356.066406 348.933594 361.714844 348.933594 368.492188 C 348.933594 375.269531 354.578125 380.921875 361.351562 380.921875 C 365.191406 380.921875 368.351562 379.113281 370.609375 376.628906 C 371.964844 381.824219 376.707031 385.664062 382.578125 385.664062 C 389.351562 385.664062 395 380.015625 395 373.238281 C 395.222656 366.234375 389.578125 360.582031 382.804688 360.582031 Z M 373.320312 365.101562 C 373.320312 364.878906 373.09375 364.652344 373.09375 364.199219 C 373.546875 364.199219 373.773438 364.199219 374.222656 364.199219 C 374 364.425781 373.773438 364.652344 373.320312 365.101562 Z M 733.261719 370.074219 C 733.261719 377.304688 727.390625 383.179688 720.164062 383.179688 C 720.164062 383.179688 691.710938 460.007812 684.710938 507.457031 L 670.035156 469.949219 L 651.746094 483.734375 C 657.617188 448.933594 684.9375 402.160156 703.453125 380.695312 C 673.421875 400.351562 635.261719 405.324219 635.261719 405.324219 L 625.777344 372.558594 C 634.355469 368.039062 656.035156 363.519531 677.261719 363.296875 C 653.324219 356.289062 626.90625 345.445312 626.90625 345.445312 L 645.648438 316.972656 C 661.003906 319.234375 698.710938 337.761719 712.714844 359.453125 C 714.746094 357.871094 717.453125 357.195312 720.164062 357.195312 C 727.390625 357.195312 733.261719 363.070312 733.261719 370.074219 Z M 205.996094 368.265625 C 205.996094 373.914062 201.480469 378.207031 196.058594 378.207031 C 190.640625 378.207031 186.125 373.691406 186.125 368.265625 C 186.125 362.617188 190.640625 358.324219 196.058594 358.324219 C 201.480469 358.324219 205.996094 362.84375 205.996094 368.265625 Z M 224.964844 377.757812 C 224.964844 383.40625 220.449219 387.699219 215.027344 387.699219 C 209.609375 387.699219 205.09375 383.179688 205.09375 377.757812 C 205.09375 372.109375 209.609375 367.816406 215.027344 367.816406 C 220.449219 367.816406 224.964844 372.332031 224.964844 377.757812 Z M 248.675781 359.003906 C 248.675781 364.652344 244.15625 368.945312 238.738281 368.945312 C 233.09375 368.945312 228.804688 364.425781 228.804688 359.003906 C 228.804688 353.351562 233.320312 349.058594 238.738281 349.058594 C 244.15625 348.832031 248.675781 353.351562 248.675781 359.003906 Z M 465 370.074219 C 465 375.949219 460.257812 380.695312 454.386719 380.695312 C 448.515625 380.695312 443.773438 375.949219 443.773438 370.074219 C 443.773438 364.199219 448.515625 359.453125 454.386719 359.453125 C 460.257812 359.453125 465 364.199219 465 370.074219 Z M 489.613281 377.304688 C 489.613281 383.179688 484.871094 387.925781 479 387.925781 C 473.128906 387.925781 468.386719 383.179688 468.386719 377.304688 C 468.386719 371.429688 473.128906 366.683594 479 366.683594 C 484.871094 366.683594 489.613281 371.429688 489.613281 377.304688 Z M 513.324219 360.582031 C 513.324219 366.457031 508.582031 371.203125 502.710938 371.203125 C 496.839844 371.203125 492.097656 366.457031 492.097656 360.582031 C 492.097656 354.707031 496.839844 349.964844 502.710938 349.964844 C 508.582031 349.964844 513.324219 354.707031 513.324219 360.582031 Z M 622.164062 363.070312 C 622.164062 368.945312 617.421875 373.691406 611.550781 373.691406 C 605.679688 373.691406 600.9375 368.945312 600.9375 363.070312 C 600.9375 357.195312 605.679688 352.449219 611.550781 352.449219 C 617.421875 352.449219 622.164062 357.195312 622.164062 363.070312 Z M 598.453125 351.320312 C 598.453125 357.195312 593.710938 361.941406 587.839844 361.941406 C 581.96875 361.941406 577.226562 357.195312 577.226562 351.320312 C 577.226562 345.445312 581.96875 340.699219 587.839844 340.699219 C 593.710938 340.699219 598.453125 345.445312 598.453125 351.320312 Z M 1045.105469 373.011719 C 1045.105469 379.789062 1050.75 385.441406 1057.523438 385.441406 C 1063.167969 385.441406 1067.910156 381.597656 1069.492188 376.402344 C 1071.75 379.113281 1075.136719 380.695312 1078.75 380.695312 C 1085.523438 380.695312 1091.167969 375.046875 1091.167969 368.265625 C 1091.167969 361.488281 1085.523438 355.839844 1078.75 355.839844 C 1078.75 355.839844 1078.523438 355.839844 1078.523438 355.839844 C 1078.75 355.386719 1078.976562 354.707031 1078.976562 354.03125 C 1080.332031 347.253906 1076.039062 340.699219 1069.265625 339.34375 C 1062.492188 337.988281 1055.945312 342.28125 1054.589844 349.058594 C 1053.6875 353.351562 1055.265625 357.644531 1058.203125 360.359375 C 1057.976562 360.359375 1057.523438 360.359375 1057.296875 360.359375 C 1050.75 360.582031 1045.105469 366.234375 1045.105469 373.011719 Z M 1066.105469 364.199219 C 1066.558594 364.199219 1066.78125 364.199219 1067.234375 364.199219 C 1067.234375 364.425781 1067.007812 364.652344 1067.007812 365.101562 C 1066.558594 364.652344 1066.332031 364.425781 1066.105469 364.199219 Z M 720.164062 357.195312 C 722.875 357.195312 725.585938 358.097656 727.617188 359.453125 C 741.617188 337.535156 779.328125 319.007812 794.683594 316.972656 L 813.648438 345.445312 C 813.648438 345.445312 787.457031 356.289062 763.292969 363.296875 C 784.292969 363.519531 806.199219 368.039062 814.777344 372.558594 L 805.292969 405.324219 C 805.292969 405.324219 767.132812 400.578125 737.101562 380.695312 C 755.390625 402.160156 782.941406 448.933594 788.8125 483.734375 L 770.519531 469.949219 L 755.84375 507.457031 C 748.84375 460.234375 720.390625 383.179688 720.390625 383.179688 C 713.164062 383.179688 707.292969 377.304688 707.292969 370.074219 C 707.066406 363.070312 712.9375 357.195312 720.164062 357.195312 Z M 1244.269531 358.324219 C 1249.914062 358.324219 1254.203125 362.84375 1254.203125 368.265625 C 1254.203125 373.914062 1249.6875 378.207031 1244.269531 378.207031 C 1238.625 378.207031 1234.332031 373.691406 1234.332031 368.265625 C 1234.332031 362.84375 1238.625 358.324219 1244.269531 358.324219 Z M 1225.300781 367.816406 C 1230.945312 367.816406 1235.238281 372.332031 1235.238281 377.757812 C 1235.238281 383.40625 1230.71875 387.699219 1225.300781 387.699219 C 1219.65625 387.699219 1215.367188 383.179688 1215.367188 377.757812 C 1215.363281 372.332031 1219.882812 367.816406 1225.300781 367.816406 Z M 1201.816406 348.832031 C 1207.460938 348.832031 1211.753906 353.351562 1211.753906 358.777344 C 1211.753906 364.425781 1207.234375 368.71875 1201.816406 368.71875 C 1196.171875 368.71875 1191.882812 364.199219 1191.882812 358.777344 C 1191.65625 353.351562 1196.171875 348.832031 1201.816406 348.832031 Z M 986.167969 359.453125 C 992.039062 359.453125 996.78125 364.199219 996.78125 370.074219 C 996.78125 375.949219 992.039062 380.695312 986.167969 380.695312 C 980.296875 380.695312 975.554688 375.949219 975.554688 370.074219 C 975.554688 364.199219 980.070312 359.453125 986.167969 359.453125 Z M 961.328125 366.683594 C 967.199219 366.683594 971.941406 371.429688 971.941406 377.304688 C 971.941406 383.179688 967.199219 387.925781 961.328125 387.925781 C 955.457031 387.925781 950.714844 383.179688 950.714844 377.304688 C 950.714844 371.429688 955.457031 366.683594 961.328125 366.683594 Z M 937.621094 349.964844 C 943.492188 349.964844 948.234375 354.707031 948.234375 360.582031 C 948.234375 366.457031 943.492188 371.203125 937.621094 371.203125 C 931.75 371.203125 927.007812 366.457031 927.007812 360.582031 C 927.007812 354.707031 931.75 349.964844 937.621094 349.964844 Z M 828.777344 352.449219 C 834.648438 352.449219 839.390625 357.195312 839.390625 363.070312 C 839.390625 368.945312 834.648438 373.691406 828.777344 373.691406 C 822.90625 373.691406 818.167969 368.945312 818.167969 363.070312 C 818.167969 357.195312 822.90625 352.449219 828.777344 352.449219 Z M 852.488281 340.472656 C 858.359375 340.472656 863.101562 345.21875 863.101562 351.09375 C 863.101562 356.96875 858.359375 361.714844 852.488281 361.714844 C 846.617188 361.714844 841.875 356.96875 841.875 351.09375 C 841.875 345.21875 846.617188 340.472656 852.488281 340.472656 Z M 852.488281 340.472656 " fill-opacity="1" fill-rule="nonzero"/></g><path fill="#000000" d="M 382.804688 360.132812 L 382.804688 361.261719 C 376.257812 361.261719 371.0625 366.457031 371.0625 373.011719 L 369.933594 373.011719 C 369.933594 369.847656 371.0625 366.910156 372.871094 364.652344 C 371.289062 359.679688 366.773438 356.289062 361.578125 356.289062 L 361.578125 355.160156 C 367 355.160156 371.742188 358.550781 373.773438 363.746094 C 376.03125 361.488281 379.191406 360.132812 382.804688 360.132812 Z M 708.648438 374.820312 C 708.195312 373.691406 707.972656 372.558594 707.972656 371.203125 L 708.195312 370.753906 C 708.195312 370.753906 708.195312 370.753906 707.972656 370.753906 C 707.746094 367.363281 708.875 363.972656 710.90625 362.164062 L 710.230469 361.261719 C 707.972656 363.070312 706.84375 366.683594 707.066406 370.300781 C 702.550781 368.945312 687.421875 364.199219 679.96875 362.390625 L 679.746094 363.519531 C 687.421875 365.554688 703.230469 370.527344 707.292969 371.65625 C 707.519531 372.785156 707.746094 374.140625 707.972656 375.269531 C 709.550781 380.015625 713.164062 382.953125 717.90625 383.179688 L 717.90625 382.050781 C 711.808594 381.597656 709.324219 377.53125 708.648438 374.820312 Z M 1066.78125 363.972656 C 1068.589844 359.003906 1073.558594 355.386719 1078.976562 355.386719 L 1078.976562 356.515625 C 1073.78125 356.515625 1069.265625 359.90625 1067.6875 364.878906 C 1069.492188 367.136719 1070.621094 370.074219 1070.621094 373.238281 L 1069.492188 373.238281 C 1069.492188 366.683594 1064.296875 361.488281 1057.75 361.488281 L 1057.75 360.359375 C 1061.136719 360.132812 1064.296875 361.488281 1066.78125 363.972656 Z M 722.875 382.050781 L 722.875 383.179688 C 727.617188 382.953125 731.230469 380.015625 732.808594 375.269531 C 733.261719 374.140625 733.488281 373.011719 733.488281 371.65625 C 737.550781 370.527344 753.359375 365.554688 761.035156 363.519531 L 760.808594 362.390625 C 753.359375 364.425781 738.230469 368.945312 733.714844 370.300781 C 733.714844 366.683594 732.585938 363.070312 730.550781 361.261719 L 729.875 362.164062 C 731.90625 363.972656 732.808594 367.136719 732.808594 370.753906 C 732.808594 370.753906 732.585938 370.753906 732.585938 370.753906 L 732.808594 371.203125 C 732.808594 372.332031 732.585938 373.691406 732.132812 374.820312 C 731.003906 377.53125 728.519531 381.597656 722.875 382.050781 Z M 722.875 382.050781 " fill-opacity="1" fill-rule="nonzero"/></svg>