<svg xmlns="http://www.w3.org/2000/svg" xmlns:xlink="http://www.w3.org/1999/xlink" width="1920" zoomAndPan="magnify" viewBox="0 0 1440 809.999993" height="1080" preserveAspectRatio="xMidYMid meet" version="1.0"><defs><clipPath id="ea368ff0d1"><path d="M 438.910156 175 L 1001.410156 175 L 1001.410156 738.910156 L 438.910156 738.910156 Z M 438.910156 175 " clip-rule="nonzero"/></clipPath><clipPath id="5df7eb0328"><path d="M 440 250 L 1001.410156 250 L 1001.410156 738.910156 L 440 738.910156 Z M 440 250 " clip-rule="nonzero"/></clipPath><clipPath id="e9e7184798"><path d="M 528 44.410156 L 946 44.410156 L 946 440 L 528 440 Z M 528 44.410156 " clip-rule="nonzero"/></clipPath></defs><g clip-path="url(#ea368ff0d1)"><path fill="#fdd07a" d="M 1001.070312 260.601562 L 1001.070312 352.652344 L 980.515625 359.210938 L 980.515625 621.953125 L 904.800781 652 L 903.179688 652.648438 C 903.25 651.550781 903.285156 650.457031 903.285156 649.359375 C 903.292969 640.789062 896.136719 633.640625 887.574219 633.640625 C 883.070312 633.640625 878.976562 635.625 876.09375 638.738281 C 875.746094 638.808594 875.402344 638.871094 875.054688 638.964844 C 874.601562 639.089844 874.164062 639.242188 873.726562 639.40625 C 869.546875 637.871094 864.792969 638.082031 860.578125 640.550781 C 857.3125 642.464844 854.917969 645.582031 853.691406 649.089844 C 853.175781 648.886719 852.648438 648.699219 852.085938 648.542969 C 845.117188 646.628906 835.613281 650.851562 834.335938 658.625 C 833.933594 661.074219 833.554688 663.539062 833.195312 666.003906 C 826.46875 669.089844 823.75 676.804688 825.027344 683.644531 L 823.246094 684.351562 L 686.1875 738.722656 L 599.730469 689.945312 L 596.988281 688.398438 C 597.261719 682.71875 594.378906 677.09375 589.265625 673.917969 C 584.847656 671.167969 582.652344 669.15625 578.65625 664.480469 C 577.699219 663.363281 577.109375 662.421875 575.359375 659.796875 C 573.4375 656.914062 571.664062 653.925781 569.882812 650.957031 C 567.535156 647.054688 564.339844 644.84375 560.917969 643.9375 C 560.523438 643.652344 560.132812 643.371094 559.722656 643.121094 C 557.324219 639.003906 553.011719 636.023438 546.777344 636.023438 C 536.738281 636.023438 531.679688 643.738281 531.585938 651.523438 L 529.863281 650.554688 L 453.828125 607.65625 L 453.828125 329.238281 L 438.941406 323.160156 L 438.941406 250.773438 L 725.8125 175.703125 Z M 1001.070312 260.601562 " fill-opacity="1" fill-rule="nonzero"/></g><g clip-path="url(#5df7eb0328)"><path fill="#e77e7f" d="M 998.390625 265.90625 C 994.863281 265.675781 991.648438 266.46875 988.421875 267.945312 C 982.652344 270.582031 977.109375 271.808594 970.9375 273.113281 C 958.40625 275.757812 945.96875 280.308594 933.644531 283.828125 C 906.34375 291.625 878.296875 297.3125 850.792969 304.441406 C 837.789062 307.8125 824.839844 311.464844 811.773438 314.574219 C 799.070312 317.59375 786.105469 319.367188 773.382812 322.296875 C 747.960938 328.152344 723.28125 337.125 697.332031 340.59375 C 697.175781 340.484375 696.980469 340.402344 696.753906 340.363281 C 691.914062 339.503906 688.832031 336.363281 684.242188 335.203125 C 678.707031 333.796875 673.242188 331.242188 667.867188 329.277344 C 657.023438 325.3125 646.472656 320.828125 635.542969 317.03125 C 612.722656 309.097656 589.871094 301.355469 566.765625 294.292969 C 543.972656 287.328125 522.480469 277.898438 500.285156 269.363281 C 489.035156 265.035156 477.710938 260.90625 466.332031 256.941406 C 458.644531 254.261719 449.71875 249.34375 441.398438 250.855469 C 440.433594 251.027344 440.714844 252.46875 441.621094 252.5 C 451.652344 252.867188 462.335938 258.59375 471.71875 261.898438 C 483.957031 266.210938 496.265625 270.578125 508.222656 275.632812 C 528.269531 284.097656 548.292969 291.710938 569.113281 298.085938 C 591.175781 304.835938 612.964844 312.335938 634.730469 319.988281 C 645.628906 323.820312 656.21875 328.277344 667.019531 332.359375 C 671.582031 334.082031 676.097656 335.953125 680.699219 337.566406 C 685.394531 339.214844 689.664062 342.042969 694.472656 343.183594 C 694.867188 373.949219 695.273438 404.761719 695.949219 435.59375 C 694.773438 434.734375 693.585938 433.886719 692.292969 433.179688 C 687.625 430.636719 682.484375 428.691406 677.671875 426.421875 C 667.207031 421.492188 656.617188 416.847656 646.15625 411.914062 C 623.859375 401.410156 600.769531 392.5625 578.308594 382.382812 C 537.34375 363.816406 495.316406 347.730469 455.207031 327.488281 C 453.441406 326.597656 451.984375 329.070312 453.660156 330.140625 C 462.660156 335.898438 473.109375 338.769531 482.15625 344.558594 C 491.234375 350.363281 501.910156 354.496094 511.644531 359.09375 C 533.644531 369.484375 556.472656 378.308594 578.65625 388.355469 C 601.050781 398.496094 624.039062 407.335938 646.265625 417.800781 C 656.777344 422.746094 667.417969 427.410156 677.929688 432.363281 C 679.222656 432.976562 680.609375 433.71875 682.054688 434.507812 C 681.964844 434.796875 681.90625 435.105469 681.90625 435.453125 L 681.90625 436.050781 C 681.910156 486.386719 681.917969 536.726562 681.925781 587.0625 C 681.929688 611.734375 681.9375 636.40625 681.996094 661.074219 C 682.058594 686.40625 681.308594 711.902344 683.121094 737.183594 C 684.078125 737.847656 685.046875 738.496094 686.054688 739.070312 C 686.292969 738.871094 686.542969 738.746094 686.792969 738.679688 C 688.660156 714.074219 687.941406 689.265625 688.003906 664.597656 C 688.066406 638.753906 688.078125 612.910156 688.085938 587.0625 C 688.089844 537.300781 688.097656 487.535156 688.105469 437.773438 C 690.875 439.171875 693.722656 440.386719 696.5 440.972656 C 697.550781 442.605469 700.121094 442.449219 701.375 441.199219 C 701.726562 441.0625 701.996094 440.753906 702.101562 440.414062 C 702.335938 440.554688 702.589844 440.675781 702.878906 440.765625 C 704.40625 440.890625 707.902344 440.207031 709.382812 439.976562 C 715.792969 438.972656 722.160156 437.316406 728.53125 436.089844 C 741.09375 433.675781 753.441406 430.9375 765.746094 427.417969 C 790.917969 420.222656 816.195312 413.003906 841.199219 405.246094 C 864.933594 397.882812 889.175781 392.714844 913.160156 386.207031 C 925.121094 382.960938 937.125 379.867188 948.988281 376.285156 C 958.230469 373.488281 970.164062 371.441406 978.628906 366.132812 C 978.664062 366.167969 978.710938 366.191406 978.75 366.226562 C 979.304688 365.664062 980.085938 365.28125 981.113281 365.28125 C 981.277344 365.28125 981.417969 365.308594 981.566406 365.328125 C 981.570312 365.269531 981.589844 365.222656 981.585938 365.160156 C 981.601562 364.578125 981.617188 363.996094 981.636719 363.414062 C 981.933594 362.089844 981.128906 360.886719 980.011719 360.515625 C 979.078125 360.804688 978.136719 361.035156 977.175781 361.207031 C 968.242188 366.089844 957.296875 368.445312 947.648438 371.417969 C 935.804688 375.066406 923.773438 378.074219 911.820312 381.347656 C 888.890625 387.636719 865.503906 392.1875 842.863281 399.457031 C 796.761719 414.253906 749.710938 428.667969 701.984375 437.148438 C 702.117188 405.878906 700.503906 374.21875 698.207031 343.117188 C 708.070312 343.148438 718.730469 340.378906 728.214844 338.289062 C 740.664062 335.546875 752.777344 331.414062 765.1875 328.488281 C 791.875 322.203125 818.761719 317.21875 845.410156 310.660156 C 872.015625 304.109375 898.785156 298.289062 925.402344 291.808594 C 938.167969 288.699219 950.695312 284.757812 963.304688 281.085938 C 969.382812 279.316406 975.417969 277.914062 981.621094 276.667969 C 982.253906 276.542969 982.871094 276.375 983.476562 276.179688 C 983.855469 275.84375 984.339844 275.578125 984.960938 275.441406 C 985.359375 275.351562 985.75 275.246094 986.144531 275.148438 C 989.519531 273.671875 992.691406 271.773438 996.417969 271.421875 C 996.492188 271.492188 996.582031 271.542969 996.664062 271.597656 C 997.078125 271.480469 997.492188 271.371094 997.90625 271.257812 C 998.972656 270.796875 1000.039062 270.332031 1001.085938 269.816406 C 1001.09375 269.71875 1001.128906 269.640625 1001.128906 269.535156 C 1001.128906 269.238281 1001.128906 268.941406 1001.128906 268.644531 C 1001.128906 267.078125 999.875 266.003906 998.390625 265.90625 Z M 998.390625 265.90625 " fill-opacity="1" fill-rule="nonzero"/></g><path fill="#cf6e6d" d="M 906.320312 630.285156 C 905.980469 637.539062 905.285156 644.761719 904.800781 652 L 823.242188 684.351562 C 823.402344 679.117188 823.671875 673.898438 823.617188 668.660156 C 823.421875 651.535156 822.191406 634.433594 822.546875 617.308594 C 823.316406 581.382812 821.296875 545.042969 819.882812 509.152344 C 819.222656 492.40625 818.488281 475.890625 819.863281 459.144531 C 821.257812 442.054688 822.082031 425.21875 822.511719 408.078125 C 822.921875 391.582031 821.886719 375.152344 822.226562 358.675781 C 822.457031 347.84375 823.101562 337.066406 823.171875 326.269531 C 822.011719 326.878906 820.582031 326.679688 819.8125 325.359375 C 819.527344 324.464844 818.917969 323.894531 817.988281 323.660156 C 817.523438 323.449219 817.453125 323 817.613281 322.625 C 810.890625 318.101562 804.691406 312.347656 798.328125 307.539062 C 788.496094 300.105469 778.558594 292.757812 768.480469 285.644531 C 758.398438 278.53125 747.492188 272.363281 737.664062 264.929688 C 729.066406 258.441406 720.898438 250.648438 710.566406 247.074219 C 708.046875 250.128906 705.238281 252.703125 702.898438 254.1875 C 691.800781 261.191406 679.628906 266.269531 668.742188 273.722656 C 657.089844 281.691406 646.597656 291.34375 637.460938 302.105469 C 619.25 323.554688 610.511719 349.507812 611.367188 377.675781 C 611.417969 379.265625 608.792969 379.675781 608.542969 378.050781 C 608.4375 377.355469 608.328125 376.675781 608.273438 375.976562 C 607.988281 379.75 607.648438 383.539062 607.578125 387.453125 C 607.398438 396.941406 608.523438 406.324219 608.863281 415.800781 C 609.542969 435.265625 606.914062 455.050781 606.308594 474.550781 C 605.074219 513.75 604.019531 552.945312 602.734375 592.160156 C 601.679688 624.746094 600.015625 657.382812 599.730469 689.949219 L 529.863281 650.554688 C 530.378906 634.46875 530.484375 618.398438 531.023438 602.3125 C 532.238281 565.082031 532.933594 527.851562 535.542969 490.710938 C 538.226562 452.496094 538.992188 413.765625 539.332031 375.460938 C 539.421875 365.613281 539.566406 355.746094 540.210938 345.917969 C 540.78125 337.371094 542.496094 328.738281 542.621094 320.195312 C 542.710938 313.207031 542.460938 306.183594 542.210938 299.195312 C 542.085938 295.921875 541.820312 292.382812 543.050781 289.308594 C 542.085938 289.148438 541.835938 287.664062 542.929688 287.324219 C 561.785156 281.300781 579.605469 271.898438 598.335938 265.320312 C 608.648438 261.695312 617.480469 255.082031 627.398438 250.539062 C 636.175781 246.519531 645.074219 242.890625 654.121094 239.546875 C 653.996094 237.957031 653.65625 236.421875 653.136719 234.917969 C 652.921875 234.113281 654.066406 233.292969 654.65625 234.042969 C 655.53125 235.152344 656.371094 236.136719 657.300781 237.046875 C 660.035156 235.4375 662.378906 230.753906 665.933594 231.199219 C 669.886719 231.71875 673.171875 231.988281 676.746094 230.949219 C 677.785156 230.554688 678.804688 230.144531 679.839844 229.734375 C 681.589844 228.894531 683.394531 227.929688 685.253906 227.339844 C 686.058594 227.089844 686.882812 226.839844 687.722656 226.609375 C 691.992188 224.910156 696.265625 223.175781 700.519531 221.425781 C 701.554688 217.996094 703.539062 214.902344 706.222656 212.972656 C 713.871094 207.484375 724.21875 207.644531 733.246094 207.859375 C 733.640625 207.878906 734.015625 207.878906 734.40625 207.914062 C 745.417969 204 756.570312 199.871094 765.597656 193.417969 C 766.4375 192.8125 767.222656 194.078125 766.632812 194.777344 C 760.984375 201.53125 753.445312 206.019531 745.328125 209.648438 C 754.105469 211.917969 762.628906 216.046875 770.386719 220.246094 C 782.988281 227.074219 793.960938 236.136719 805.363281 244.699219 C 817.734375 253.972656 831.175781 260.964844 844.347656 268.953125 C 852.695312 274.003906 860.996094 279.121094 869.527344 283.820312 C 867.75 284.523438 867.355469 287.554688 869.683594 288.109375 C 876.101562 289.644531 881.546875 293.445312 886.308594 298.09375 C 889.261719 303.121094 892.035156 308.277344 896.089844 312.550781 C 896.25 312.71875 896.417969 312.84375 896.589844 312.949219 C 898.367188 322.535156 899.769531 332.203125 900.578125 341.933594 C 902.558594 366.148438 902.453125 390.710938 903.488281 415 C 905.492188 462.578125 903.898438 510.035156 905.097656 557.613281 C 905.730469 581.667969 907.445312 606.246094 906.320312 630.285156 Z M 906.320312 630.285156 " fill-opacity="1" fill-rule="nonzero"/><g clip-path="url(#e9e7184798)"><path fill="#cf6e6d" d="M 941.730469 369.351562 C 942.871094 371.585938 944.109375 373.75 945.382812 375.882812 C 944.449219 376.046875 943.433594 375.875 942.710938 375.261719 C 942.585938 375.171875 942.445312 375.0625 942.320312 374.957031 C 942.070312 374.886719 941.835938 374.777344 941.621094 374.636719 C 926.839844 367.539062 912.628906 359.316406 898.296875 351.382812 C 891.808594 347.789062 881.261719 344.445312 876.097656 338.28125 C 876.023438 338.40625 875.917969 338.511719 875.792969 338.601562 C 873.664062 343.679688 872.96875 351.863281 872 356.867188 C 870.449219 365.070312 868.339844 373.578125 865.570312 381.460938 C 865.472656 381.738281 865.367188 382.03125 865.269531 382.3125 C 863.003906 387.011719 860.566406 391.636719 858.109375 396.238281 C 853.996094 403.945312 849.816406 411.753906 845.179688 419.222656 C 841.351562 415.058594 840.671875 405.859375 839.207031 400.78125 C 836.453125 391.113281 833.378906 381.515625 829.980469 372.0625 C 822.5625 351.433594 812.429688 331.917969 800.863281 313.324219 C 789.535156 295.113281 777.253906 278.277344 763.847656 261.601562 C 757.878906 254.164062 753.320312 245.765625 746.742188 238.773438 C 742.613281 234.378906 738.753906 229.929688 733.945312 226.246094 C 733.875 226.191406 730.890625 223.3125 729.175781 222.082031 C 728.296875 222.976562 726.976562 223.117188 725.796875 222.707031 C 725.3125 222.726562 724.8125 222.636719 724.367188 222.367188 C 719.523438 228.960938 716.949219 237.273438 712.660156 244.226562 C 708.121094 251.554688 704.027344 258.648438 700.558594 266.550781 C 684.1875 303.851562 670.703125 341.574219 664.132812 381.941406 C 661.128906 400.460938 660.734375 418.957031 658.949219 437.546875 C 658.839844 438.65625 658.339844 439.378906 657.683594 439.789062 C 648.886719 426.042969 640.457031 412.0625 631.832031 398.203125 C 631.308594 397.023438 630.789062 395.839844 630.261719 394.667969 C 627.507812 388.59375 625.632812 382.265625 623.363281 376.007812 C 623.023438 375.09375 622.609375 372.808594 622.183594 370.734375 C 614.53125 378.332031 605.113281 384.035156 597.875 392.273438 C 589.921875 401.316406 580.195312 410.898438 573.941406 421.121094 C 573.808594 421.351562 573.550781 421.570312 573.269531 421.648438 C 573.117188 420.519531 572.933594 419.398438 572.730469 418.273438 C 573.238281 415.363281 572.132812 411.695312 572.0625 408.949219 C 571.9375 403.390625 572.222656 397.902344 573.011719 392.398438 C 574.65625 380.886719 577.265625 369.449219 580.125 358.1875 C 585.792969 335.898438 594.746094 313.609375 607.542969 294.449219 C 620.25 275.414062 635.550781 257.039062 652.996094 242.152344 C 654.246094 241.078125 655.515625 240.007812 656.804688 238.953125 C 652.925781 239.363281 649.03125 240.058594 645.148438 239.757812 C 641.324219 239.453125 637.535156 241.238281 633.765625 240.917969 C 625.777344 240.238281 617.714844 238.328125 609.636719 238.34375 C 600.933594 238.363281 593.226562 237.824219 585.34375 233.804688 C 577.980469 230.050781 569.167969 227.746094 562.949219 222.113281 C 540.914062 202.152344 521.746094 169.367188 530.867188 139.546875 C 531.800781 134.824219 532.96875 129.785156 535.070312 125.640625 C 541.21875 113.523438 547.96875 101.679688 555.703125 90.492188 C 562.769531 80.265625 571 70.550781 578.941406 60.992188 C 581.300781 58.152344 584.960938 52.109375 589 50 C 589.921875 48.824219 590.835938 47.644531 591.753906 46.46875 C 593.265625 45.847656 594.753906 45.195312 596.21875 44.515625 C 600.570312 44.609375 604.925781 44.761719 609.28125 45.050781 C 629.285156 46.386719 647.152344 52.570312 664.40625 62.542969 C 689.347656 76.960938 710.292969 97.183594 721.757812 123.296875 C 722.621094 124.144531 723.421875 125.046875 724.042969 126.15625 C 726.238281 130.078125 728.089844 134.285156 729.460938 138.574219 C 732.90625 149.347656 735.503906 160.515625 737.195312 171.691406 C 737.550781 174.039062 737.761719 176.382812 737.890625 178.726562 C 742.246094 172.417969 746.183594 165.8125 751.160156 159.890625 C 764.347656 144.164062 780.527344 132.761719 798.363281 122.804688 C 816.523438 112.671875 835.648438 104.214844 855.324219 97.496094 C 875.003906 90.757812 895.792969 83.625 916.882812 85.734375 C 917.011719 85.714844 917.132812 85.710938 917.253906 85.707031 C 927.058594 98.65625 932.789062 115.492188 938.484375 130.523438 C 943.015625 142.492188 949.042969 153.621094 944.050781 166.542969 C 939.96875 177.101562 930.132812 185.652344 921.691406 192.753906 C 903.679688 207.90625 881.8125 216.832031 859.242188 222.882812 C 847.046875 226.152344 834.550781 228.265625 821.972656 229.335938 C 827.191406 234 832.109375 238.859375 836.664062 243.292969 C 851.574219 257.84375 865.835938 273.125 879.777344 288.605469 C 894.058594 304.460938 907.664062 320.757812 921.082031 337.347656 C 926.410156 343.90625 929.914062 352.449219 935.917969 358.398438 C 935.921875 358.40625 935.929688 358.410156 935.933594 358.417969 C 936.664062 359.394531 937.382812 360.394531 938.0625 361.425781 C 939.246094 364.128906 940.425781 366.8125 941.730469 369.351562 Z M 941.730469 369.351562 " fill-opacity="1" fill-rule="nonzero"/></g><path fill="#e77e7f" d="M 946.597656 156.042969 C 946.601562 157.492188 945.671875 158.941406 943.796875 158.933594 C 943.492188 158.933594 943.21875 158.925781 942.964844 158.90625 C 936.175781 158.777344 929.738281 156.863281 922.722656 157.59375 C 914.621094 158.4375 906.683594 160.070312 898.800781 162.089844 C 883.285156 166.058594 867.871094 170.367188 852.710938 175.542969 C 836.304688 181.140625 820.179688 187.488281 804.375 194.609375 C 793.050781 199.710938 781.878906 207.109375 770.207031 211.550781 C 788.285156 214.390625 806.113281 218.703125 822.855469 226.300781 C 824.464844 227.027344 824.554688 228.777344 823.820312 230.0625 C 817.433594 228.117188 810.90625 226.582031 804.464844 224.753906 C 792.957031 221.484375 781.675781 217.34375 769.605469 216.929688 C 769.414062 216.921875 769.238281 216.933594 769.074219 216.964844 C 768.6875 216.902344 768.300781 216.820312 767.914062 216.757812 C 757.863281 215.09375 747.671875 213.769531 737.5 213.128906 C 732.871094 212.832031 727.3125 213.335938 722.640625 212.246094 C 722.300781 212.472656 721.871094 212.613281 721.347656 212.605469 C 720.917969 212.597656 720.484375 212.613281 720.054688 212.625 C 723.265625 215.566406 727.144531 217.597656 730.582031 220.335938 C 735.582031 224.324219 740.429688 228.558594 744.867188 233.171875 C 752.71875 241.335938 759.445312 250.40625 766.277344 259.414062 C 773.933594 269.515625 781.179688 279.496094 788.046875 290.128906 C 788.214844 290.394531 788.417969 290.652344 788.605469 290.910156 C 789.355469 292.585938 790.429688 294.078125 791.460938 295.59375 C 793.140625 299.433594 794.671875 303.347656 796.53125 307.105469 C 796.335938 307.171875 796.125 307.21875 795.898438 307.222656 C 795.632812 306.976562 795.359375 306.734375 795.085938 306.496094 C 794.460938 305.738281 793.835938 304.980469 793.179688 304.253906 C 793.183594 304.246094 793.183594 304.238281 793.183594 304.230469 C 792.445312 302.550781 791.183594 300.976562 789.839844 299.519531 C 787.316406 295.140625 784.300781 291.011719 780.804688 287.414062 C 774.722656 277.421875 767.164062 268.363281 760.132812 259.03125 C 752.289062 248.621094 744.527344 238.363281 734.847656 229.554688 C 732.421875 227.347656 729.761719 225.210938 727.128906 223.023438 C 727.105469 223.058594 727.097656 223.09375 727.070312 223.125 C 723.140625 228.035156 721.066406 233.785156 718.054688 239.21875 C 716.710938 241.640625 714.648438 247.5625 711.515625 247.921875 C 711.460938 247.925781 711.398438 247.875 711.386719 247.824219 C 710.644531 243.667969 714.617188 238.40625 716.296875 234.835938 C 718.511719 230.121094 720.765625 225.527344 723.953125 221.402344 C 724.046875 221.140625 724.195312 220.902344 724.390625 220.699219 C 721.574219 218.253906 718.910156 215.683594 716.710938 212.832031 C 706.277344 214 695.488281 219.320312 686.09375 223.121094 C 676.945312 226.824219 668.75 233.691406 659.816406 237.757812 C 657.941406 238.839844 656.042969 239.96875 654.300781 241.410156 C 647.144531 247.335938 640.566406 253.722656 634.527344 260.789062 C 621.714844 275.78125 611.925781 293.40625 602.003906 310.386719 C 592.5 326.652344 586.363281 344.601562 581.894531 362.847656 C 577.453125 380.972656 574.128906 399.621094 574.8125 418.324219 C 575.625 417.019531 576.664062 415.8125 577.675781 414.5625 C 581.539062 409.800781 585 404.730469 589.015625 400.085938 C 591.492188 397.226562 594.160156 394.542969 596.851562 391.882812 C 600.765625 389.113281 604.828125 386.472656 608.035156 382.929688 C 608.078125 384.496094 608.15625 386.0625 608.308594 387.648438 C 603.699219 392.25 598.628906 396.421875 594.242188 401.289062 C 587.796875 408.429688 582.285156 417.023438 575 423.347656 C 574.675781 424.625 572.4375 424.808594 572.175781 423.332031 C 568.699219 403.953125 572.375 383.445312 576.9375 364.515625 C 581.398438 346.03125 586.976562 327.175781 596.625 310.644531 C 613.410156 281.886719 632.277344 244.136719 664.007812 228.929688 C 670.617188 224.421875 678.863281 221.09375 684.886719 218.757812 C 691.042969 216.371094 697.476562 213.398438 704.054688 211.164062 C 704.035156 211.003906 704.027344 210.84375 704.035156 210.679688 C 699.789062 203.96875 692.175781 197.59375 686.574219 192.453125 C 679.066406 185.566406 671.140625 179.117188 662.664062 173.453125 C 648.25 163.824219 632.84375 155.585938 616.488281 149.742188 C 600.359375 143.972656 583.292969 139.34375 566.058594 138.996094 C 557.09375 138.816406 548.273438 139.496094 539.558594 141.730469 C 537.160156 142.34375 532.972656 144.136719 530.40625 142.941406 C 530.355469 142.925781 530.3125 142.90625 530.265625 142.882812 C 530.203125 142.851562 530.128906 142.839844 530.070312 142.804688 C 530.027344 142.777344 530.007812 142.742188 529.972656 142.714844 C 529.964844 142.707031 529.957031 142.699219 529.949219 142.695312 C 529.617188 142.433594 529.484375 142.085938 529.503906 141.738281 C 529.484375 141.386719 529.617188 141.042969 529.949219 140.78125 C 529.957031 140.773438 529.964844 140.765625 529.972656 140.761719 C 530.007812 140.730469 530.027344 140.695312 530.070312 140.671875 C 556.53125 124.71875 596.890625 136.113281 623.410156 146.488281 C 656.4375 159.402344 688.78125 180.046875 710.492188 208.589844 C 710.632812 208.773438 710.714844 208.988281 710.785156 209.207031 C 714.285156 208.378906 717.8125 207.875 721.347656 207.90625 C 721.875 207.910156 722.304688 208.066406 722.644531 208.304688 C 725.777344 206.820312 730.960938 207.613281 733.996094 207.808594 C 734.324219 200.722656 735.699219 193.664062 735.8125 186.632812 C 735.859375 183.703125 735.164062 179.265625 738.460938 178.070312 C 738.726562 177.972656 739.027344 178.132812 739.171875 178.359375 C 740.9375 181.179688 740.378906 187.28125 740.402344 190.59375 C 740.441406 196.460938 740.773438 202.328125 740.90625 208.199219 C 748.261719 208.691406 755.605469 209.480469 762.894531 210.476562 C 763.914062 210.613281 764.929688 210.777344 765.945312 210.921875 C 777.582031 201.066406 794.574219 194.710938 808.332031 188.472656 C 823.460938 181.613281 838.851562 175.308594 854.535156 169.824219 C 870.542969 164.226562 886.910156 159.179688 903.429688 155.300781 C 910.742188 153.578125 918.261719 151.910156 925.804688 151.625 C 931.957031 151.394531 937.855469 153.125 943.800781 153.144531 C 945.671875 153.144531 946.601562 154.59375 946.597656 156.042969 Z M 880.394531 340.492188 C 879.9375 340.300781 879.476562 340.105469 879.019531 339.910156 C 878.550781 339.714844 878.082031 339.519531 877.613281 339.320312 L 877.613281 339.324219 C 877.15625 339.128906 876.703125 338.941406 876.246094 338.75 C 876.054688 338.667969 875.890625 338.570312 875.742188 338.460938 C 874.988281 338.90625 874.4375 339.628906 874.449219 340.617188 C 871.617188 356.898438 866.109375 372.441406 859.238281 387.445312 C 856.40625 393.628906 853.117188 399.582031 850.21875 405.734375 C 848.671875 409.015625 846.609375 412.453125 845.363281 416.011719 C 843.726562 412.03125 842.105469 405.570312 841.480469 403.175781 C 839.953125 397.386719 837.871094 391.726562 836.050781 386.027344 C 832.820312 375.921875 829.023438 362.59375 822.6875 354.054688 C 822.289062 353.519531 821.214844 353.605469 821.28125 354.433594 C 822.28125 366.429688 829.628906 378.28125 832.558594 390.019531 C 834.015625 395.871094 835.433594 402.566406 837.789062 408.101562 C 839.390625 411.855469 840.574219 419.195312 843.476562 422.335938 C 843.757812 422.640625 844.066406 422.816406 844.378906 422.933594 C 845.378906 421.800781 846.375 420.660156 847.375 419.523438 C 847.320312 419.414062 847.226562 419.3125 847.15625 419.207031 C 847.769531 418.640625 848.332031 418.019531 848.859375 417.355469 C 848.902344 417.242188 848.953125 417.140625 848.992188 417.03125 C 849.136719 416.625 849.402344 416.367188 849.707031 416.199219 C 851.460938 413.628906 852.777344 410.625 854.148438 408.027344 C 857.808594 401.074219 861.765625 394.316406 865.191406 387.238281 C 872.007812 373.148438 876.632812 358.214844 879.988281 342.96875 C 882.546875 344.722656 885.566406 346.058594 888.191406 347.625 C 892.621094 349.492188 896.921875 351.628906 901.296875 353.621094 C 901.75 353.363281 902.046875 352.914062 902.167969 352.410156 C 895.539062 347.203125 888.113281 343.765625 880.398438 340.496094 L 880.398438 340.492188 Z M 880.394531 340.492188 " fill-opacity="1" fill-rule="nonzero"/></svg>