<svg xmlns="http://www.w3.org/2000/svg" xmlns:xlink="http://www.w3.org/1999/xlink" width="1920" zoomAndPan="magnify" viewBox="0 0 1440 809.999993" height="1080" preserveAspectRatio="xMidYMid meet" version="1.0"><path fill="#231f20" d="M 1147.21875 451.625 C 1143.496094 460.597656 1143.972656 470.867188 1148.519531 480.488281 C 1153.585938 491.191406 1163.027344 499.511719 1173.769531 502.804688 C 1191.917969 508.351562 1213.832031 501.460938 1228.382812 485.6875 C 1246.703125 465.839844 1252.550781 434.550781 1243.238281 406.039062 C 1233.40625 375.878906 1210.582031 355.382812 1193.214844 343.464844 C 1156.75 318.546875 1112.570312 309.101562 1072.121094 317.636719 C 1057.871094 320.628906 1044.488281 326.042969 1032.1875 333.109375 L 1032.1875 252.636719 C 1032.1875 244.011719 1025.171875 236.992188 1016.550781 236.992188 L 985.800781 236.992188 C 1002.519531 230.449219 1008.972656 221.523438 1011.050781 217.664062 C 1014.820312 210.644531 1016.640625 203.363281 1016.335938 196.605469 C 1015.945312 188.5 1012.308594 180.875 1006.546875 176.238281 C 998.925781 170.085938 987.621094 168.871094 977.011719 172.988281 C 967.527344 176.671875 960.207031 183.648438 954.316406 189.976562 C 940.285156 205.054688 930.796875 220.742188 926.035156 236.558594 L 925.773438 234.480469 L 925.382812 234.523438 C 919.972656 211.164062 903.988281 190.320312 882.679688 179.269531 C 872.027344 173.769531 862.542969 172.425781 854.527344 175.328125 C 847.253906 177.929688 841.277344 184.296875 838.417969 192.316406 C 835.644531 200.246094 835.429688 208.390625 837.855469 215.28125 C 841.492188 225.683594 848.550781 232.484375 856.996094 236.992188 L 819.578125 236.992188 C 810.957031 236.992188 803.941406 244.011719 803.941406 252.636719 L 803.941406 277.988281 C 803.855469 278.03125 803.8125 278.03125 803.726562 278.074219 C 780.035156 290.941406 766.566406 314.949219 759.117188 334.882812 C 754.003906 314.691406 734.949219 295.753906 717.019531 286.523438 C 705.972656 280.847656 695.710938 278.941406 686.570312 280.804688 C 674.617188 283.273438 665.261719 293.285156 664.828125 304.117188 C 664.484375 312.132812 667.296875 319.195312 673.144531 325.175781 C 681.246094 333.496094 694.757812 338.742188 709.007812 341.949219 L 675.699219 341.949219 C 667.601562 341.949219 660.976562 348.535156 660.976562 356.636719 L 660.976562 398.976562 C 657.855469 400.015625 654.78125 401.445312 651.878906 403.4375 C 646.941406 406.820312 642.394531 411.628906 637.890625 418.085938 C 634.554688 422.894531 631.652344 428.007812 629.273438 433.253906 C 627.105469 438.019531 625.289062 442.960938 623.945312 447.941406 L 623.511719 449.460938 C 623.511719 449.503906 623.511719 449.546875 623.46875 449.546875 C 616.105469 437.195312 608.050781 425.0625 597.179688 415.050781 C 589.730469 408.207031 582.496094 404.046875 575.132812 402.398438 C 565.347656 400.1875 555.472656 402.789062 549.363281 409.160156 C 542.652344 416.179688 540.875 427.53125 545.035156 437.414062 C 548.367188 445.429688 555.339844 452.40625 564.695312 457.042969 C 565.953125 457.648438 567.816406 458.257812 570.066406 458.777344 L 542.132812 458.777344 C 533.945312 458.777344 527.277344 465.449219 527.277344 473.640625 L 527.277344 554.976562 C 514.195312 555.800781 501.203125 557.839844 488.46875 562 C 451.917969 573.914062 416.230469 609.578125 422.117188 652.175781 L 423.070312 659.195312 L 430.132812 659.371094 C 460.664062 660.148438 491.847656 660.625 523.160156 661.015625 L 521.777344 711.109375 L 331.902344 710.894531 C 290.066406 710.851562 247.101562 708.46875 221.765625 680.605469 C 210.203125 667.90625 204.441406 649.664062 205.914062 630.640625 C 206.433594 624.183594 207.734375 617.984375 209.726562 612.179688 C 214.878906 600.132812 228.175781 587.609375 240.214844 588.214844 C 252.949219 588.953125 264.859375 598.3125 268.539062 610.53125 L 271.917969 621.753906 L 281.402344 614.867188 C 289.15625 609.1875 293.054688 599.914062 292.058594 589.34375 C 290.933594 576.949219 283.394531 565.726562 272.914062 560.699219 C 253.640625 551.46875 232.332031 559.875 218.777344 570.75 C 201.84375 584.359375 191.101562 605.722656 189.238281 629.339844 C 187.421875 652.957031 194.738281 675.75 209.378906 691.828125 C 239.304688 724.71875 288.246094 727.535156 331.816406 727.578125 L 1068.785156 728.445312 C 1070.128906 728.445312 1071.511719 728.445312 1072.898438 728.445312 C 1088.878906 728.445312 1106.679688 728.226562 1124.179688 725.109375 L 1124.265625 725.367188 C 1125.089844 725.152344 1125.867188 724.890625 1126.691406 724.632812 C 1141.070312 721.8125 1155.230469 716.960938 1167.964844 708.597656 C 1185.636719 696.941406 1198.542969 675.792969 1200.925781 654.691406 C 1202.785156 638.09375 1198.066406 622.96875 1187.628906 612.09375 C 1175.847656 599.828125 1158.175781 595.0625 1143.667969 600.304688 C 1135.308594 603.296875 1128.035156 610.1875 1124.222656 618.679688 C 1120.714844 626.523438 1120.453125 634.886719 1123.398438 642.253906 C 1126.90625 650.917969 1135.394531 657.289062 1145.488281 658.804688 C 1149.210938 659.371094 1152.808594 659.195312 1156.183594 658.417969 C 1156.660156 679.648438 1142.757812 701.230469 1122.664062 708.46875 C 1104.515625 711.890625 1085.503906 711.804688 1068.828125 711.847656 L 951.457031 711.71875 L 951.371094 667.257812 C 951.671875 667.257812 952.019531 667.257812 952.367188 667.300781 C 953.449219 667.34375 954.53125 667.34375 955.613281 667.34375 C 989.65625 667.34375 1023.871094 646.023438 1047.648438 609.707031 C 1061.769531 588.171875 1071.167969 564.164062 1080.304688 540.9375 C 1084.332031 530.667969 1088.359375 520.398438 1092.777344 510.34375 C 1110.1875 470.738281 1130.976562 445.472656 1156.269531 433.035156 C 1163.589844 429.4375 1174.070312 425.886719 1182.5625 429.527344 C 1184.597656 430.390625 1186.503906 432.039062 1187.929688 434.03125 C 1184.121094 432.820312 1179.917969 432.34375 1175.414062 432.601562 C 1162.8125 433.339844 1151.636719 440.878906 1147.21875 451.625 Z M 265.984375 575.648438 C 270.578125 577.816406 274.257812 583.058594 275.425781 588.734375 C 269.40625 581.671875 261.4375 576.296875 252.515625 573.523438 C 257.105469 573.089844 261.699219 573.65625 265.984375 575.648438 Z M 1156.316406 639.828125 C 1153.890625 642.816406 1149.472656 642.382812 1148.171875 642.210938 C 1143.972656 641.558594 1140.332031 639.003906 1139.035156 635.839844 C 1137.777344 632.71875 1137.996094 628.992188 1139.640625 625.351562 C 1141.632812 620.933594 1145.3125 617.378906 1149.515625 615.863281 C 1157.875 612.871094 1168.660156 616.035156 1175.847656 623.53125 C 1184.769531 632.804688 1185.507812 644.550781 1184.597656 652.738281 C 1183.125 666.042969 1176.238281 679.347656 1166.40625 688.707031 C 1173.074219 674.582031 1175.113281 658.285156 1170.824219 642.859375 L 1166.535156 627.390625 Z M 748.332031 350.484375 L 765.699219 350.484375 L 765.699219 567.933594 C 759.894531 567.890625 754.136719 567.761719 748.332031 567.675781 Z M 774.144531 536.300781 C 774.96875 552.292969 788.089844 565.074219 804.289062 565.074219 C 821.007812 565.074219 834.605469 551.46875 834.605469 534.742188 C 834.605469 518.015625 821.007812 504.40625 804.289062 504.40625 C 788.089844 504.40625 774.96875 517.191406 774.144531 533.222656 L 774.144531 350.484375 L 787.136719 350.484375 C 785.320312 353.996094 784.0625 357.765625 784.0625 361.839844 C 784.0625 375.75 795.367188 387.058594 809.269531 387.058594 C 823.171875 387.058594 834.476562 375.75 834.476562 361.839844 C 834.476562 357.808594 833.4375 353.996094 831.660156 350.484375 L 838.15625 350.484375 C 841.578125 350.484375 844.394531 353.257812 844.394531 356.722656 L 844.394531 406.6875 C 842.921875 406.472656 841.535156 405.953125 840.0625 405.953125 C 823.34375 405.953125 809.746094 419.558594 809.746094 436.285156 C 809.746094 453.011719 823.34375 466.621094 840.0625 466.621094 C 841.535156 466.621094 842.964844 466.316406 844.394531 466.101562 L 844.394531 563.730469 C 820.878906 567.457031 796.96875 568.152344 775.316406 568.152344 C 774.925781 568.152344 774.492188 568.152344 774.101562 568.152344 L 774.101562 536.300781 Z M 784.191406 534.785156 C 784.191406 523.691406 793.203125 514.632812 804.332031 514.632812 C 815.417969 514.632812 824.429688 523.648438 824.429688 534.785156 C 824.429688 545.878906 815.417969 554.890625 804.332031 554.890625 C 793.203125 554.890625 784.191406 545.878906 784.191406 534.785156 Z M 821.484375 350.484375 C 824.386719 353.605469 826.03125 357.546875 826.03125 361.839844 C 826.03125 371.066406 818.539062 378.566406 809.3125 378.566406 C 800.089844 378.566406 792.59375 371.066406 792.59375 361.839844 C 792.59375 357.589844 794.199219 353.605469 797.097656 350.484375 Z M 844.4375 455.785156 C 832.3125 458.386719 820.011719 448.722656 820.011719 436.199219 C 820.011719 425.105469 829.019531 416.09375 840.148438 416.09375 C 841.621094 416.09375 843.050781 416.527344 844.480469 416.828125 L 844.480469 455.785156 Z M 852.925781 473.898438 L 906.066406 542.972656 C 896.929688 548.347656 886.925781 552.984375 876.097656 556.496094 C 868.519531 558.921875 860.765625 560.742188 852.925781 562.300781 Z M 913.300781 538.46875 L 852.925781 459.988281 L 852.925781 382.636719 L 950.027344 498.035156 C 942.320312 513.636719 929.585938 527.460938 913.300781 538.46875 Z M 953.710938 489.242188 L 852.925781 369.464844 L 852.925781 356.679688 C 852.925781 348.578125 846.34375 341.992188 838.246094 341.992188 L 812.691406 341.992188 L 812.691406 325.871094 C 823.300781 320.582031 833.480469 313.910156 838.675781 304.332031 C 842.792969 296.75 842.402344 287.78125 838.246094 281.539062 L 965.011719 440.488281 C 964.753906 442.136719 964.449219 443.824219 964.148438 445.472656 C 961.546875 460.898438 958.90625 475.589844 953.710938 489.242188 Z M 812.691406 283.359375 C 815.417969 282.277344 817.976562 281.539062 820.355469 281.410156 C 820.660156 281.410156 820.921875 281.367188 821.222656 281.367188 C 825.121094 281.367188 828.628906 282.753906 830.75 285.136719 C 834.261719 289.125 833.695312 295.753906 831.269531 300.21875 C 827.71875 306.804688 820.617188 311.917969 812.691406 316.25 Z M 967.050781 429.351562 L 820.617188 245.703125 L 863.882812 245.703125 L 982.382812 383.160156 C 980.171875 387.230469 978.050781 391.347656 976.316406 395.683594 C 971.898438 406.644531 969.214844 418 967.050781 429.351562 Z M 987.015625 375.617188 L 875.058594 245.746094 L 936.386719 245.746094 L 935.777344 246.265625 L 1017.9375 342.511719 C 1005.683594 351.742188 995.199219 362.964844 987.015625 375.617188 Z M 1023.527344 252.636719 L 1023.527344 335.96875 L 946.476562 245.703125 L 1016.597656 245.703125 C 1020.40625 245.746094 1023.527344 248.824219 1023.527344 252.636719 Z M 960.597656 195.738281 C 965.835938 190.105469 972.246094 183.953125 980.128906 180.875 C 987.792969 177.882812 996.109375 178.664062 1001.265625 182.824219 C 1005.164062 185.945312 1007.628906 191.273438 1007.890625 196.996094 C 1008.152344 202.195312 1006.632812 207.957031 1003.601562 213.636719 C 997.625 224.730469 976.792969 236.300781 936.082031 236.300781 C 935.734375 236.300781 935.347656 236.300781 935 236.300781 C 939.632812 222.648438 948.210938 209 960.597656 195.738281 Z M 845.867188 212.507812 C 844.089844 207.4375 844.308594 201.285156 846.429688 195.175781 C 848.421875 189.542969 852.535156 185.121094 857.386719 183.34375 C 859.207031 182.695312 861.199219 182.347656 863.320312 182.347656 C 867.824219 182.347656 873.023438 183.863281 878.78125 186.8125 C 897.882812 196.691406 912.261719 215.367188 917.113281 236.34375 C 915.769531 236.386719 914.296875 236.429688 912.738281 236.515625 C 892.640625 237.339844 855.09375 238.8125 845.867188 212.507812 Z M 812.691406 252.636719 C 812.691406 251.726562 812.90625 250.859375 813.210938 250.078125 L 836.296875 279.027344 C 832.3125 274.996094 826.421875 272.828125 819.925781 272.960938 C 817.542969 273.089844 815.160156 273.566406 812.691406 274.347656 Z M 803.984375 288.300781 L 803.984375 320.628906 C 800.996094 322.015625 797.964844 323.3125 795.152344 324.570312 C 791.988281 325.957031 788.957031 327.257812 786.230469 328.558594 C 780.46875 331.289062 774.40625 333.886719 767.996094 335.664062 C 774.535156 318.851562 785.882812 299.914062 803.984375 288.300781 Z M 673.320312 304.507812 C 673.664062 296.75 681.203125 290.640625 688.304688 289.167969 C 689.992188 288.820312 691.769531 288.648438 693.632812 288.648438 C 699.519531 288.648438 706.105469 290.464844 713.164062 294.105469 C 729.230469 302.382812 747.074219 320.019531 751.148438 337.917969 C 731.875 337.746094 693.890625 334.320312 679.253906 319.285156 C 675.050781 314.992188 673.101562 310.183594 673.320312 304.507812 Z M 789.78125 336.226562 C 792.464844 334.972656 795.367188 333.714844 798.484375 332.371094 C 800.261719 331.589844 802.082031 330.8125 803.941406 329.988281 L 803.941406 342.035156 L 775.703125 342.035156 C 780.597656 340.300781 785.320312 338.308594 789.78125 336.226562 Z M 675.742188 350.484375 L 693.890625 350.484375 C 694.152344 351.785156 694.628906 353.042969 694.628906 354.382812 C 694.628906 365.910156 685.230469 375.316406 673.707031 375.316406 C 672.277344 375.316406 670.894531 375.011719 669.550781 374.707031 L 669.550781 356.722656 C 669.507812 353.257812 672.277344 350.484375 675.742188 350.484375 Z M 669.507812 385.28125 C 670.894531 385.453125 672.277344 385.886719 673.664062 385.886719 C 691.03125 385.886719 705.195312 371.761719 705.195312 354.339844 C 705.195312 353.042969 704.980469 351.742188 704.847656 350.441406 L 739.84375 350.441406 L 739.84375 391 C 737.980469 381.773438 730.183594 374.707031 720.441406 374.707031 C 709.308594 374.707031 700.257812 383.765625 700.257812 394.902344 C 700.257812 406.039062 709.308594 415.09375 720.441406 415.09375 C 730.183594 415.09375 737.980469 407.988281 739.84375 398.800781 L 739.84375 567.5 C 732.003906 567.328125 724.164062 567.066406 716.324219 566.808594 C 716.371094 566.460938 716.542969 566.113281 716.542969 565.769531 L 716.542969 479.664062 C 729.449219 478.535156 739.625 467.832031 739.625 454.660156 C 739.625 440.75 728.324219 429.4375 714.421875 429.4375 C 700.519531 429.4375 689.214844 440.75 689.214844 454.660156 C 689.214844 456.089844 689.429688 457.433594 689.648438 458.820312 L 669.550781 458.820312 L 669.550781 456.21875 C 678.777344 450.890625 686.3125 443.132812 690.511719 433.902344 C 694.628906 424.933594 694.886719 415.875 691.164062 409.070312 C 687.609375 402.527344 680.421875 398.066406 672.367188 397.457031 C 671.457031 397.371094 670.503906 397.5 669.550781 397.5 L 669.550781 385.28125 Z M 732.308594 394.945312 C 732.308594 401.488281 726.980469 406.820312 720.441406 406.820312 C 713.902344 406.820312 708.574219 401.488281 708.574219 394.945312 C 708.574219 388.402344 713.902344 383.070312 720.441406 383.070312 C 726.980469 383.070312 732.308594 388.402344 732.308594 394.945312 Z M 536.070312 527.246094 L 596.789062 527.246094 L 596.789062 543.234375 L 536.070312 543.234375 Z M 697.660156 454.660156 C 697.660156 445.429688 705.152344 437.933594 714.375 437.933594 C 723.601562 437.933594 731.09375 445.429688 731.09375 454.660156 C 731.09375 463.328125 724.207031 470 715.9375 470.910156 C 714.59375 464.0625 708.875 458.777344 701.644531 458.777344 L 698.523438 458.777344 C 698.222656 457.433594 697.660156 456.132812 697.660156 454.660156 Z M 707.878906 518.75 L 639.40625 518.75 L 639.40625 499.597656 L 707.878906 499.597656 Z M 639.40625 527.246094 L 707.878906 527.246094 L 707.878906 543.234375 L 639.40625 543.234375 Z M 701.6875 467.488281 C 705.109375 467.488281 707.878906 470.261719 707.878906 473.683594 L 707.878906 491.148438 L 639.40625 491.148438 L 639.40625 467.488281 Z M 596.789062 518.75 L 536.070312 518.75 L 536.070312 499.597656 L 596.789062 499.597656 Z M 605.277344 467.488281 L 630.960938 467.488281 L 630.960938 561.78125 C 622.386719 561.042969 613.808594 560.308594 605.277344 559.441406 Z M 639.40625 551.726562 L 707.878906 551.726562 L 707.878906 565.8125 C 707.878906 566.070312 707.75 566.289062 707.75 566.503906 C 684.925781 565.59375 662.144531 564.339844 639.449219 562.519531 L 639.449219 551.726562 Z M 669.507812 446.121094 L 669.507812 406.167969 C 670.242188 406.125 670.980469 405.867188 671.671875 405.910156 C 676.828125 406.296875 681.503906 409.117188 683.667969 413.101562 C 687.089844 419.429688 684.191406 427.273438 682.761719 430.347656 C 679.945312 436.546875 675.269531 441.917969 669.507812 446.121094 Z M 631.699219 452.015625 L 632.21875 450.28125 C 633.472656 445.734375 635.117188 441.183594 637.066406 436.847656 C 639.234375 432.039062 641.875 427.402344 644.90625 422.980469 C 648.804688 417.390625 652.660156 413.320312 656.730469 410.503906 C 658.117188 409.550781 659.589844 409.070312 661.019531 408.421875 L 661.019531 451.148438 C 660.628906 451.324219 660.324219 451.539062 659.9375 451.714844 C 650.582031 455.570312 639.796875 456.695312 630.917969 455.308594 C 630.875 454.746094 631.351562 453.097656 631.699219 452.015625 Z M 552.960938 434.207031 C 550.144531 427.488281 551.226562 419.644531 555.601562 415.09375 C 558.632812 411.933594 563.355469 410.199219 568.421875 410.199219 C 570.066406 410.199219 571.710938 410.371094 573.402344 410.761719 C 579.292969 412.105469 585.226562 415.570312 591.59375 421.378906 C 602.464844 431.390625 610.5625 444.128906 618.097656 456.957031 C 615.023438 456.480469 610.34375 455.960938 604.933594 455.351562 C 593.019531 453.964844 573.054688 451.710938 568.59375 449.503906 C 561.058594 445.777344 555.515625 440.316406 552.960938 434.207031 Z M 542.261719 467.488281 L 596.789062 467.488281 L 596.789062 491.148438 L 536.070312 491.148438 L 536.070312 473.683594 C 536.070312 470.261719 538.839844 467.488281 542.261719 467.488281 Z M 536.070312 551.726562 L 596.789062 551.726562 L 596.789062 558.574219 L 595.015625 558.402344 C 575.566406 556.320312 555.730469 554.285156 536.070312 554.71875 Z M 539.964844 661.234375 C 578.035156 661.625 616.234375 661.882812 653.785156 662.101562 C 680.855469 662.273438 708.226562 662.445312 735.640625 662.664062 L 734.167969 711.371094 L 538.625 711.152344 Z M 935.042969 711.585938 L 750.84375 711.371094 L 752.316406 662.835938 C 813.6875 663.398438 875.144531 664.441406 934.957031 666.605469 Z M 1188.667969 454.054688 L 1194.816406 464.410156 L 1202.355469 455.007812 C 1206.859375 449.417969 1208.289062 441.832031 1206.382812 434.25 C 1204.085938 425.234375 1197.546875 417.480469 1189.273438 414.011719 C 1177.96875 409.246094 1164.109375 410.589844 1149.167969 417.957031 C 1120.238281 432.167969 1096.894531 460.164062 1077.792969 503.496094 C 1073.289062 513.765625 1069.175781 524.253906 1065.058594 534.742188 C 1055.835938 558.226562 1047.128906 580.414062 1034.007812 600.480469 C 1017.550781 625.613281 987.1875 651.828125 953.277344 650.53125 C 855.742188 646.585938 753.140625 645.980469 653.914062 645.417969 C 582.582031 645.027344 508.914062 644.59375 438.273438 642.902344 C 438.445312 613.304688 465.386719 587.132812 493.753906 577.859375 C 524.980469 567.675781 559.671875 571.402344 593.238281 574.957031 L 599.386719 575.605469 C 657.554688 581.757812 716.5 584.359375 775.402344 584.75 C 808.1875 584.707031 846.125 583.707031 881.25 572.355469 C 920.058594 559.789062 950.765625 535.085938 965.488281 504.539062 C 974.152344 486.554688 977.445312 467.054688 980.605469 448.203125 C 983.332031 431.824219 985.933594 416.394531 991.78125 401.964844 C 1005.464844 367.992188 1037.601562 341.949219 1075.585938 333.972656 C 1111.140625 326.519531 1151.636719 335.230469 1183.859375 357.246094 C 1199.148438 367.6875 1219.070312 385.542969 1227.472656 411.238281 C 1234.921875 434.121094 1230.503906 458.949219 1216.214844 474.421875 C 1205.90625 485.601562 1190.832031 490.628906 1178.664062 486.898438 C 1172.382812 484.992188 1166.621094 479.835938 1163.589844 473.421875 C 1161.078125 468.09375 1160.734375 462.632812 1162.636719 458.039062 C 1164.976562 452.40625 1171.472656 449.503906 1176.886719 449.113281 C 1178.835938 448.894531 1185.59375 448.851562 1188.667969 454.054688 Z M 1188.667969 454.054688 " fill-opacity="1" fill-rule="nonzero"/><path fill="#231f20" d="M 574.050781 186.636719 L 561.316406 196.953125 L 551.746094 204.621094 C 549.710938 208.609375 547.414062 212.292969 545.683594 216.667969 C 550.316406 215.886719 554.390625 214.414062 558.71875 213.246094 L 568.203125 205.488281 C 568.203125 205.488281 574.09375 200.722656 579.59375 196.300781 C 579.59375 202.5 579.59375 208.824219 579.59375 208.824219 C 579.164062 218.792969 579.769531 222.734375 583.839844 231.835938 C 587.910156 222.734375 588.515625 218.75 588.085938 208.824219 L 588.085938 194.4375 L 602.59375 202.542969 L 613.289062 208.566406 C 617.75 208.957031 621.996094 209.734375 626.71875 209.691406 C 624.25 205.660156 621.390625 202.453125 618.703125 198.859375 L 607.964844 192.921875 C 607.964844 192.921875 599.996094 188.457031 593.628906 184.949219 C 601.121094 178.882812 611.429688 170.5625 615.890625 166.921875 C 617.882812 162.890625 620.175781 159.25 621.953125 154.917969 C 617.363281 155.742188 613.289062 157.214844 608.960938 158.339844 C 604.671875 161.808594 595.402344 169.347656 588.039062 175.285156 C 588.039062 169.21875 588.039062 162.761719 588.039062 162.761719 C 588.472656 152.96875 587.953125 148.675781 583.796875 139.75 C 579.636719 148.675781 579.117188 153.011719 579.550781 162.761719 L 579.550781 177.148438 C 571.105469 172.425781 559.414062 165.925781 554.300781 163.109375 C 549.839844 162.71875 545.554688 161.980469 540.917969 161.9375 C 543.386719 165.882812 546.289062 169.085938 548.976562 172.726562 C 554.128906 175.542969 565.648438 181.957031 574.050781 186.636719 Z M 574.050781 186.636719 " fill-opacity="1" fill-rule="nonzero"/><path fill="#231f20" d="M 395.742188 389.484375 L 383.011719 399.796875 L 373.4375 407.46875 C 371.402344 411.457031 369.105469 415.140625 367.375 419.515625 C 372.007812 418.734375 376.082031 417.261719 380.410156 416.09375 L 389.894531 408.335938 C 389.894531 408.335938 395.785156 403.570312 401.285156 399.148438 C 401.285156 405.34375 401.285156 411.671875 401.285156 411.671875 C 400.855469 421.640625 401.460938 425.582031 405.53125 434.683594 C 409.601562 425.582031 410.207031 421.59375 409.777344 411.671875 L 409.777344 397.328125 L 424.285156 405.433594 L 434.980469 411.457031 C 439.441406 411.84375 443.6875 412.625 448.410156 412.582031 C 445.941406 408.550781 443.082031 405.34375 440.394531 401.75 L 429.65625 395.8125 C 429.65625 395.8125 421.6875 391.347656 415.320312 387.839844 C 422.8125 381.773438 433.121094 373.453125 437.582031 369.8125 C 439.574219 365.78125 441.867188 362.140625 443.644531 357.808594 C 439.054688 358.632812 434.980469 360.105469 430.652344 361.230469 C 426.363281 364.699219 417.09375 372.238281 409.730469 378.175781 C 409.730469 372.109375 409.730469 365.652344 409.730469 365.652344 C 410.164062 355.859375 409.644531 351.566406 405.488281 342.640625 C 401.332031 351.566406 400.808594 355.902344 401.242188 365.652344 L 401.242188 380.039062 C 392.796875 375.316406 381.105469 368.816406 375.992188 366 C 371.53125 365.609375 367.246094 364.871094 362.609375 364.828125 C 365.078125 368.773438 367.980469 371.976562 370.667969 375.617188 C 375.777344 378.433594 387.296875 384.804688 395.742188 389.484375 Z M 395.742188 389.484375 " fill-opacity="1" fill-rule="nonzero"/><path fill="#231f20" d="M 1067.050781 153.789062 L 1054.320312 164.105469 L 1044.746094 171.773438 C 1042.710938 175.761719 1040.417969 179.445312 1038.683594 183.820312 C 1043.320312 183.042969 1047.390625 181.566406 1051.71875 180.398438 L 1061.207031 172.640625 C 1061.207031 172.640625 1067.097656 167.875 1072.597656 163.453125 C 1072.597656 169.652344 1072.597656 175.976562 1072.597656 175.976562 C 1072.164062 185.945312 1072.769531 189.886719 1076.839844 198.988281 C 1080.910156 189.886719 1081.519531 185.902344 1081.085938 175.976562 L 1081.085938 161.589844 L 1095.59375 169.695312 L 1106.292969 175.71875 C 1110.753906 176.109375 1114.996094 176.886719 1119.71875 176.84375 C 1117.25 172.816406 1114.390625 169.609375 1111.707031 166.011719 L 1100.964844 160.074219 C 1100.964844 160.074219 1092.996094 155.609375 1086.628906 152.101562 C 1094.121094 146.035156 1104.429688 137.714844 1108.890625 134.074219 C 1110.882812 130.042969 1113.179688 126.402344 1114.953125 122.070312 C 1110.363281 122.894531 1106.292969 124.367188 1101.960938 125.492188 C 1097.671875 128.960938 1088.40625 136.5 1081.042969 142.4375 C 1081.042969 136.371094 1081.042969 129.914062 1081.042969 129.914062 C 1081.476562 120.121094 1080.957031 115.832031 1076.796875 106.902344 C 1072.640625 115.832031 1072.121094 120.164062 1072.554688 129.914062 L 1072.554688 144.300781 C 1064.109375 139.578125 1052.414062 133.078125 1047.304688 130.261719 C 1042.84375 129.871094 1038.554688 129.132812 1033.921875 129.089844 C 1036.390625 133.035156 1039.289062 136.242188 1041.976562 139.878906 C 1047.128906 142.699219 1058.648438 149.066406 1067.050781 153.789062 Z M 1067.050781 153.789062 " fill-opacity="1" fill-rule="nonzero"/><path fill="#231f20" d="M 813.382812 111.0625 C 823 111.0625 830.796875 103.261719 830.796875 93.644531 C 830.796875 84.023438 822.957031 76.222656 813.382812 76.222656 C 803.8125 76.222656 795.972656 84.023438 795.972656 93.644531 C 795.972656 103.261719 803.769531 111.0625 813.382812 111.0625 Z M 813.382812 84.542969 C 818.40625 84.542969 822.480469 88.617188 822.480469 93.644531 C 822.480469 98.667969 818.40625 102.742188 813.382812 102.742188 C 808.359375 102.742188 804.289062 98.667969 804.289062 93.644531 C 804.289062 88.617188 808.359375 84.542969 813.382812 84.542969 Z M 813.382812 84.542969 " fill-opacity="1" fill-rule="nonzero"/><path fill="#231f20" d="M 1090.570312 257.964844 C 1090.570312 267.585938 1098.367188 275.386719 1107.980469 275.386719 C 1117.59375 275.386719 1125.390625 267.585938 1125.390625 257.964844 C 1125.390625 248.347656 1117.59375 240.546875 1107.980469 240.546875 C 1098.367188 240.546875 1090.570312 248.390625 1090.570312 257.964844 Z M 1117.03125 257.964844 C 1117.03125 262.992188 1112.960938 267.066406 1107.9375 267.066406 C 1102.914062 267.066406 1098.84375 262.992188 1098.84375 257.964844 C 1098.84375 252.9375 1102.914062 248.867188 1107.9375 248.867188 C 1112.960938 248.867188 1117.03125 252.984375 1117.03125 257.964844 Z M 1117.03125 257.964844 " fill-opacity="1" fill-rule="nonzero"/><path fill="#231f20" d="M 1193.171875 302.296875 C 1202.785156 302.296875 1210.582031 294.496094 1210.582031 284.875 C 1210.582031 275.257812 1202.785156 267.457031 1193.171875 267.457031 C 1183.558594 267.457031 1175.761719 275.257812 1175.761719 284.875 C 1175.761719 294.496094 1183.601562 302.296875 1193.171875 302.296875 Z M 1193.171875 275.820312 C 1198.195312 275.820312 1202.265625 279.894531 1202.265625 284.917969 C 1202.265625 289.945312 1198.195312 294.019531 1193.171875 294.019531 C 1188.148438 294.019531 1184.078125 289.945312 1184.078125 284.917969 C 1184.121094 279.894531 1188.191406 275.820312 1193.171875 275.820312 Z M 1193.171875 275.820312 " fill-opacity="1" fill-rule="nonzero"/><path fill="#231f20" d="M 929.890625 157.171875 C 939.503906 157.171875 947.300781 149.371094 947.300781 139.75 C 947.300781 130.128906 939.503906 122.332031 929.890625 122.332031 C 920.273438 122.332031 912.476562 130.128906 912.476562 139.75 C 912.476562 149.371094 920.273438 157.171875 929.890625 157.171875 Z M 929.890625 130.652344 C 934.914062 130.652344 938.984375 134.722656 938.984375 139.75 C 938.984375 144.777344 934.914062 148.851562 929.890625 148.851562 C 924.863281 148.851562 920.792969 144.777344 920.792969 139.75 C 920.792969 134.722656 924.863281 130.652344 929.890625 130.652344 Z M 929.890625 130.652344 " fill-opacity="1" fill-rule="nonzero"/><path fill="#231f20" d="M 737.027344 217.273438 C 738.804688 217.839844 740.621094 218.140625 742.398438 218.140625 C 745.128906 218.140625 747.8125 217.492188 750.28125 216.234375 C 758.8125 211.859375 762.234375 201.371094 757.859375 192.792969 C 755.738281 188.632812 752.144531 185.597656 747.726562 184.125 C 743.308594 182.695312 738.585938 183.042969 734.472656 185.207031 C 725.941406 189.585938 722.519531 200.070312 726.894531 208.652344 C 729.015625 212.769531 732.609375 215.84375 737.027344 217.273438 Z M 738.242188 192.617188 C 739.539062 191.96875 740.925781 191.621094 742.355469 191.621094 C 743.308594 191.621094 744.261719 191.75 745.171875 192.054688 C 747.464844 192.792969 749.371094 194.394531 750.453125 196.5625 C 752.75 201.023438 750.972656 206.484375 746.511719 208.78125 C 744.347656 209.863281 741.878906 210.039062 739.582031 209.34375 C 737.289062 208.609375 735.382812 207.003906 734.300781 204.839844 C 732.003906 200.375 733.78125 194.914062 738.242188 192.617188 Z M 738.242188 192.617188 " fill-opacity="1" fill-rule="nonzero"/><path fill="#231f20" d="M 464.390625 236.644531 C 466.164062 237.210938 467.984375 237.511719 469.761719 237.511719 C 472.488281 237.511719 475.175781 236.863281 477.6875 235.605469 C 486.21875 231.230469 489.640625 220.742188 485.265625 212.160156 C 483.144531 208.046875 479.546875 204.96875 475.132812 203.539062 C 470.714844 202.109375 465.992188 202.457031 461.835938 204.578125 C 453.300781 208.957031 449.882812 219.441406 454.253906 228.023438 C 456.335938 232.140625 459.972656 235.214844 464.390625 236.644531 Z M 465.601562 211.988281 C 466.902344 211.339844 468.289062 210.992188 469.71875 210.992188 C 470.667969 210.992188 471.621094 211.164062 472.53125 211.425781 C 474.828125 212.160156 476.734375 213.765625 477.816406 215.933594 C 480.113281 220.394531 478.335938 225.855469 473.875 228.152344 C 471.710938 229.234375 469.285156 229.453125 466.945312 228.714844 C 464.648438 227.980469 462.789062 226.375 461.660156 224.207031 C 459.367188 219.746094 461.140625 214.242188 465.601562 211.988281 Z M 465.601562 211.988281 " fill-opacity="1" fill-rule="nonzero"/><path fill="#231f20" d="M 526.367188 327.5625 C 528.144531 328.125 529.960938 328.425781 531.738281 328.425781 C 534.464844 328.425781 537.152344 327.777344 539.621094 326.519531 C 548.152344 322.144531 551.574219 311.65625 547.199219 303.078125 C 545.078125 298.960938 541.480469 295.882812 537.066406 294.453125 C 532.605469 293.023438 527.925781 293.371094 523.769531 295.492188 C 519.652344 297.617188 516.578125 301.214844 515.148438 305.632812 C 513.71875 310.054688 514.109375 314.777344 516.1875 318.9375 C 518.355469 323.054688 521.949219 326.128906 526.367188 327.5625 Z M 523.074219 308.191406 C 523.8125 305.894531 525.414062 303.988281 527.578125 302.902344 C 528.878906 302.253906 530.265625 301.90625 531.695312 301.90625 C 532.648438 301.90625 533.601562 302.082031 534.507812 302.339844 C 536.804688 303.078125 538.710938 304.679688 539.792969 306.847656 C 542.089844 311.308594 540.3125 316.769531 535.851562 319.066406 C 533.6875 320.152344 531.21875 320.367188 528.921875 319.628906 C 526.625 318.894531 524.722656 317.289062 523.636719 315.125 C 522.554688 312.957031 522.339844 310.488281 523.074219 308.191406 Z M 523.074219 308.191406 " fill-opacity="1" fill-rule="nonzero"/><path fill="#231f20" d="M 322.417969 526.117188 C 324.195312 526.679688 325.96875 526.984375 327.789062 526.984375 C 330.519531 526.984375 333.203125 526.335938 335.671875 525.078125 C 344.203125 520.699219 347.625 510.214844 343.25 501.632812 C 341.128906 497.472656 337.535156 494.441406 333.117188 493.011719 C 328.65625 491.582031 323.976562 491.925781 319.820312 494.050781 C 311.289062 498.425781 307.867188 508.914062 312.242188 517.492188 C 314.40625 521.609375 318 524.6875 322.417969 526.117188 Z M 323.632812 501.460938 C 324.929688 500.808594 326.316406 500.464844 327.746094 500.464844 C 328.699219 500.464844 329.652344 500.636719 330.5625 500.898438 C 332.855469 501.632812 334.761719 503.238281 335.84375 505.402344 C 338.140625 509.867188 336.363281 515.328125 331.902344 517.625 C 329.738281 518.75 327.269531 518.925781 324.972656 518.1875 C 322.679688 517.449219 320.773438 515.847656 319.691406 513.679688 C 317.394531 509.21875 319.214844 503.757812 323.632812 501.460938 Z M 323.632812 501.460938 " fill-opacity="1" fill-rule="nonzero"/><path fill="#231f20" d="M 414.453125 542.714844 C 410.296875 544.839844 407.261719 548.433594 405.792969 552.855469 C 404.363281 557.273438 404.75 562 406.875 566.113281 C 408.996094 570.230469 412.589844 573.308594 417.007812 574.78125 C 418.785156 575.34375 420.601562 575.648438 422.378906 575.648438 C 425.109375 575.648438 427.792969 575 430.304688 573.742188 C 438.835938 569.363281 442.257812 558.878906 437.882812 550.296875 C 433.507812 541.761719 422.984375 538.292969 414.453125 542.714844 Z M 426.492188 566.289062 C 424.328125 567.414062 421.902344 567.589844 419.5625 566.851562 C 417.269531 566.113281 415.40625 564.511719 414.28125 562.34375 C 413.152344 560.179688 412.980469 557.707031 413.71875 555.410156 C 414.453125 553.113281 416.054688 551.207031 418.222656 550.125 C 419.519531 549.429688 420.949219 549.128906 422.335938 549.128906 C 425.628906 549.128906 428.832031 550.949219 430.433594 554.066406 C 432.730469 558.53125 430.953125 564.035156 426.492188 566.289062 Z M 426.492188 566.289062 " fill-opacity="1" fill-rule="nonzero"/></svg>